<svg width="25" height="25" viewBox="0 0 25 25" fill="none" xmlns="http://www.w3.org/2000/svg">
<path d="M18.2938 12.954C18.1925 13.3942 17.9447 13.7869 17.5909 14.0678C17.2372 14.3487 16.7985 14.5011 16.3468 14.5H11.1168C10.1968 14.5 9.39884 13.876 9.17684 12.983L7.80984 7.5H19.5638L18.2938 12.954ZM7.31184 5.5L6.81384 3.5H3.75684C3.49162 3.5 3.23727 3.60536 3.04973 3.79289C2.86219 3.98043 2.75684 4.23478 2.75684 4.5C2.75684 4.76522 2.86219 5.01957 3.04973 5.20711C3.23727 5.39464 3.49162 5.5 3.75684 5.5H5.25084L7.23384 13.467C7.4489 14.3338 7.94823 15.1036 8.65208 15.6534C9.35594 16.2032 10.2237 16.5012 11.1168 16.5H16.3468C17.2507 16.5031 18.1288 16.1985 18.8366 15.6364C19.5445 15.0743 20.04 14.2881 20.2418 13.407L22.0828 5.5H7.31284H7.31184ZM10.7568 18.5C10.4942 18.5001 10.2341 18.5519 9.99151 18.6524C9.74888 18.753 9.52844 18.9004 9.34277 19.0861C8.96779 19.4613 8.7572 19.9701 8.75734 20.5005C8.7574 20.7631 8.8092 21.0232 8.90977 21.2658C9.01034 21.5085 9.15771 21.7289 9.34348 21.9146C9.71864 22.2895 10.2274 22.5001 10.7578 22.5C11.2883 22.4999 11.7969 22.289 12.1719 21.9139C12.5469 21.5387 12.7575 21.0299 12.7573 20.4995C12.7572 19.9691 12.5464 19.4604 12.1712 19.0854C11.796 18.7105 11.2873 18.4999 10.7568 18.5ZM16.7568 18.5C16.2264 18.5001 15.7177 18.711 15.3428 19.0861C14.9678 19.4613 14.7572 19.9701 14.7573 20.5005C14.7575 21.0309 14.9683 21.5396 15.3435 21.9146C15.7186 22.2895 16.2274 22.5001 16.7578 22.5C17.0205 22.4999 17.2805 22.4481 17.5232 22.3476C17.7658 22.247 17.9862 22.0996 18.1719 21.9139C18.3576 21.7281 18.5048 21.5076 18.6053 21.2649C18.7057 21.0222 18.7574 20.7621 18.7573 20.4995C18.7573 20.2369 18.7055 19.9768 18.6049 19.7342C18.5043 19.4915 18.357 19.2711 18.1712 19.0854C17.9854 18.8998 17.7649 18.7525 17.5222 18.6521C17.2796 18.5516 17.0195 18.4999 16.7568 18.5Z" fill="#01011B"/>
</svg>
