<svg width="25" height="25" viewBox="0 0 25 25" fill="none" xmlns="http://www.w3.org/2000/svg">
<path fill-rule="evenodd" clip-rule="evenodd" d="M11.1871 4.31212C8.48311 2.63112 5.02511 3.61812 3.46211 6.74212C1.24711 11.1681 4.17211 16.8551 12.3221 21.3021L12.6881 21.5001L13.0521 21.3011C21.2031 16.8561 24.1301 11.1681 21.9141 6.74112C20.3511 3.61812 16.8931 2.63112 14.1891 4.31112C13.6212 4.66849 13.1144 5.11486 12.6881 5.63312C12.2615 5.11511 11.7554 4.66908 11.1871 4.31212ZM12.6871 19.2141C16.2221 17.1911 18.4761 15.0111 19.6421 13.0081C20.8421 10.9461 20.8771 9.13812 20.1251 7.63612C19.4691 6.32612 18.4051 5.65812 17.3761 5.52612C16.3601 5.39512 15.1861 5.75812 14.2251 6.91312L12.6871 8.76012L11.1501 6.91412C10.1881 5.75812 9.01411 5.39612 7.99911 5.52712C6.96911 5.65912 5.90611 6.32612 5.24911 7.63712M12.6871 19.2141C9.15211 17.1911 6.89911 15.0121 5.73311 13.0091C4.53311 10.9471 4.49911 9.13812 5.24911 7.63712" fill="#01011B"/>
</svg>
