<svg width="25" height="25" viewBox="0 0 25 25" fill="none" xmlns="http://www.w3.org/2000/svg">
<path d="M13.2422 2.5C12.1987 2.49992 11.1786 2.80853 10.3102 3.387C9.66095 3.8176 9.11567 4.38729 8.71391 5.05477C8.31216 5.72224 8.06398 6.47076 7.98739 7.24605C7.9108 8.02133 8.00772 8.80394 8.2711 9.53713C8.53449 10.2703 8.95775 10.9357 9.51019 11.485C10.2492 12.2219 11.1898 12.7234 12.2135 12.9263C13.2372 13.1292 14.298 13.0243 15.2622 12.625C16.2257 12.2272 17.0497 11.5528 17.6302 10.687C18.3082 9.6751 18.6135 8.45902 18.4939 7.24686C18.3742 6.03469 17.837 4.90179 16.9742 4.042C15.9833 3.05429 14.6413 2.49976 13.2422 2.5ZM13.2422 10.921C12.6166 10.9206 12.005 10.7353 11.4844 10.3884C10.9638 10.0414 10.5573 9.54829 10.3162 8.971C10.0767 8.3941 10.0142 7.75904 10.1365 7.14652C10.2589 6.534 10.5605 5.97167 11.0032 5.531C11.4462 5.09012 12.0097 4.79005 12.6228 4.66852C13.2359 4.54698 13.8713 4.6094 14.449 4.84792C15.0267 5.08645 15.521 5.49044 15.8698 6.00911C16.2186 6.52778 16.4062 7.13798 16.4092 7.763C16.4092 8.601 16.0752 9.403 15.4812 9.996C14.8872 10.588 14.0812 10.921 13.2422 10.921ZM22.7422 22.5V21.447C22.742 20.4789 22.5507 19.5204 22.1793 18.6264C21.808 17.7323 21.2639 16.9204 20.5782 16.237C19.1907 14.8545 17.3118 14.0785 15.3532 14.079H11.1322C9.17356 14.0785 7.29463 14.8545 5.90719 16.237C5.2213 16.9203 4.677 17.7322 4.30549 18.6262C3.93398 19.5203 3.74255 20.4788 3.74219 21.447V22.5H5.85319V21.447C5.85319 20.052 6.40919 18.713 7.39919 17.726C8.39005 16.7383 9.73212 16.1838 11.1312 16.184H15.3532C16.7532 16.184 18.0952 16.739 19.0852 17.726C19.575 18.2141 19.9636 18.794 20.2289 19.4325C20.4942 20.071 20.6309 20.7556 20.6312 21.447V22.5H22.7422Z" fill="#01011B"/>
</svg>
