<svg width="40" height="41" viewBox="0 0 40 41" fill="none" xmlns="http://www.w3.org/2000/svg">
<path d="M35 27.7834V12.3771C34.9988 12.1546 34.939 11.9363 34.8265 11.7443C34.714 11.5523 34.5529 11.3933 34.3594 11.2834L20.6094 3.54902C20.4241 3.44206 20.2139 3.38574 20 3.38574C19.7861 3.38574 19.5759 3.44206 19.3906 3.54902L5.64062 11.2834C5.44711 11.3933 5.28599 11.5523 5.17352 11.7443C5.06105 11.9363 5.0012 12.1546 5 12.3771V27.7834C5.0012 28.0059 5.06105 28.2242 5.17352 28.4163C5.28599 28.6083 5.44711 28.7673 5.64062 28.8772L19.3906 36.6115C19.5759 36.7185 19.7861 36.7748 20 36.7748C20.2139 36.7748 20.4241 36.7185 20.6094 36.6115L34.3594 28.8772C34.5529 28.7673 34.714 28.6083 34.8265 28.4163C34.939 28.2242 34.9988 28.0059 35 27.7834V27.7834Z" stroke="#191C1F" stroke-width="1.5" stroke-linecap="round" stroke-linejoin="round"/>
<path d="M27.6562 23.9082V15.7832L12.5 7.42383" stroke="#191C1F" stroke-width="1.5" stroke-linecap="round" stroke-linejoin="round"/>
<path d="M34.8281 11.7363L20.1406 20.0801L5.17188 11.7363" stroke="#191C1F" stroke-width="1.5" stroke-linecap="round" stroke-linejoin="round"/>
<path d="M20.1406 20.0801L20 36.7676" stroke="#191C1F" stroke-width="1.5" stroke-linecap="round" stroke-linejoin="round"/>
</svg>
