<svg width="31" height="31" viewBox="0 0 31 31" fill="none" xmlns="http://www.w3.org/2000/svg">
<g clip-path="url(#clip0_1837_13089)">
<path d="M25.4336 5.72373L15.0316 1.10063C14.8826 1.03365 14.7211 0.999023 14.5577 0.999023C14.3944 0.999023 14.2329 1.03365 14.0839 1.10063L3.68191 5.72373C3.47913 5.81488 3.30694 5.96258 3.18599 6.14913C3.06504 6.33568 3.00046 6.55315 3 6.77548V16.6689C3.00796 18.0759 3.31147 19.4656 3.89086 20.7478C4.47025 22.03 5.3126 23.1762 6.3633 24.1121L13.7949 30.7115C14.0058 30.8968 14.277 30.999 14.5577 30.999C14.8385 30.999 15.1096 30.8968 15.3205 30.7115L22.7522 24.1121C23.8029 23.1762 24.6452 22.03 25.2246 20.7478C25.804 19.4656 26.1075 18.0759 26.1155 16.6689V6.77548C26.115 6.55315 26.0504 6.33568 25.9295 6.14913C25.8085 5.96258 25.6363 5.81488 25.4336 5.72373ZM23.8039 16.6689C23.8061 17.7605 23.5765 18.8402 23.1302 19.8364C22.6839 20.8327 22.0311 21.7227 21.215 22.4478L14.5577 28.3422L7.90048 22.4247C7.08439 21.6996 6.43158 20.8095 5.98527 19.8133C5.53896 18.8171 5.30932 17.7374 5.31155 16.6458V7.52673L14.5577 3.41218L23.8039 7.52673V16.6689Z" fill="#0000EE"/>
<path d="M11.0905 14.0457C10.8728 13.828 10.5777 13.7058 10.2699 13.7058C9.96209 13.7058 9.66691 13.828 9.44928 14.0457C9.23164 14.2633 9.10938 14.5585 9.10938 14.8663C9.10938 15.1741 9.23164 15.4692 9.44928 15.6869L12.3387 18.5763C12.4462 18.6846 12.574 18.7706 12.7148 18.8293C12.8557 18.888 13.0067 18.9182 13.1593 18.9182C13.3119 18.9182 13.463 18.888 13.6038 18.8293C13.7446 18.7706 13.8725 18.6846 13.9799 18.5763L19.7588 12.7974C19.9764 12.5675 20.0938 12.2606 20.0851 11.9442C20.0765 11.6277 19.9424 11.3277 19.7125 11.11C19.4826 10.8924 19.1757 10.775 18.8593 10.7837C18.5428 10.7923 18.2428 10.9263 18.0251 11.1562L13.0668 16.1261L11.0905 14.0457Z" fill="#0000EE"/>
</g>
<defs>
<clipPath id="clip0_1837_13089">
<rect width="30" height="30" fill="white" transform="translate(0.330078 0.949219)"/>
</clipPath>
</defs>
</svg>
