<svg width="40" height="41" viewBox="0 0 40 41" fill="none" xmlns="http://www.w3.org/2000/svg">
<path d="M8.75 8.83008V17.4395C8.75 23.6426 13.7187 28.7832 19.9219 28.8301C21.4058 28.8404 22.8771 28.557 24.2511 27.9962C25.625 27.4355 26.8744 26.6085 27.9274 25.5628C28.9803 24.5171 29.816 23.2734 30.3862 21.9034C30.9565 20.5334 31.25 19.064 31.25 17.5801V8.83008C31.25 8.49856 31.1183 8.18062 30.8839 7.94619C30.6495 7.71177 30.3315 7.58008 30 7.58008H10C9.66848 7.58008 9.35054 7.71177 9.11612 7.94619C8.8817 8.18062 8.75 8.49856 8.75 8.83008Z" stroke="#191C1F" stroke-width="1.5" stroke-linecap="round" stroke-linejoin="round"/>
<path d="M15 35.0801H25" stroke="#191C1F" stroke-width="1.5" stroke-linecap="round" stroke-linejoin="round"/>
<path d="M20 28.8301V35.0801" stroke="#191C1F" stroke-width="1.5" stroke-linecap="round" stroke-linejoin="round"/>
<path d="M30.9688 20.0801H32.5C33.8261 20.0801 35.0979 19.5533 36.0355 18.6156C36.9732 17.6779 37.5 16.4062 37.5 15.0801V12.5801C37.5 12.2486 37.3683 11.9306 37.1339 11.6962C36.8995 11.4618 36.5815 11.3301 36.25 11.3301H31.25" stroke="#191C1F" stroke-width="1.5" stroke-linecap="round" stroke-linejoin="round"/>
<path d="M9.0625 20.0801H7.48438C6.15829 20.0801 4.88652 19.5533 3.94884 18.6156C3.01116 17.6779 2.48438 16.4062 2.48438 15.0801V12.5801C2.48438 12.2486 2.61607 11.9306 2.85049 11.6962C3.08491 11.4618 3.40285 11.3301 3.73438 11.3301H8.73438" stroke="#191C1F" stroke-width="1.5" stroke-linecap="round" stroke-linejoin="round"/>
</svg>
