<svg width="40" height="41" viewBox="0 0 40 41" fill="none" xmlns="http://www.w3.org/2000/svg">
<path d="M35.2344 21.3296H30.2344C29.5713 21.3296 28.9354 21.593 28.4666 22.0619C27.9978 22.5307 27.7344 23.1666 27.7344 23.8296V30.0796C27.7344 30.7427 27.9978 31.3785 28.4666 31.8474C28.9354 32.3162 29.5713 32.5796 30.2344 32.5796H32.7344C33.3974 32.5796 34.0333 32.3162 34.5021 31.8474C34.971 31.3785 35.2344 30.7427 35.2344 30.0796V21.3296ZM35.2344 21.3296C35.2344 19.3492 34.8424 17.3884 34.0807 15.5604C33.3191 13.7323 32.203 12.0731 30.7969 10.6786C29.3907 9.28406 27.7224 8.18178 25.888 7.43535C24.0537 6.68892 22.0897 6.31312 20.1094 6.32962C18.1304 6.31519 16.1681 6.69253 14.3355 7.43988C12.503 8.18724 10.8365 9.28984 9.432 10.6842C8.02751 12.0785 6.91283 13.7369 6.15218 15.564C5.39153 17.391 4.99995 19.3506 5 21.3296V30.0796C5 30.7427 5.26339 31.3785 5.73223 31.8474C6.20107 32.3162 6.83696 32.5796 7.5 32.5796H10C10.663 32.5796 11.2989 32.3162 11.7678 31.8474C12.2366 31.3785 12.5 30.7427 12.5 30.0796V23.8296C12.5 23.1666 12.2366 22.5307 11.7678 22.0619C11.2989 21.593 10.663 21.3296 10 21.3296H5" stroke="#191C1F" stroke-width="1.5" stroke-linecap="round" stroke-linejoin="round"/>
</svg>
