<svg width="132" height="26" viewBox="0 0 132 26" fill="none" xmlns="http://www.w3.org/2000/svg">
<path fill-rule="evenodd" clip-rule="evenodd" d="M0 15.25H10.0001V10.75H0V15.25ZM16.0864 6.33319H25.0006V9.83336H16.0864V6.33319ZM17.5005 0.5H10.0004V1.99989H17.5005V0.5ZM21.2506 2.91653H6.25039V5.41656H21.2506V2.91653ZM11.4143 6.33319H2.50035V9.83336H11.4143V6.33319ZM16.0864 19.6668H25.0006V16.1666H16.0864V19.6668ZM17.5005 15.25H27.5007V10.75H17.5005V15.25ZM17.5005 25.5H10.0004V24.0001H17.5005V25.5ZM21.2506 23.0835H6.25039V20.5834H21.2506V23.0835ZM11.4143 19.6668H2.50035V16.1666H11.4143V19.6668Z" fill="#08923C"/>
<path d="M36.734 12.9954C36.734 14.0302 37.0766 14.89 37.7611 15.5742C38.4457 16.2588 39.2902 16.6007 40.2939 16.6007C41.2981 16.6007 42.1424 16.2588 42.8272 15.5742C43.5118 14.8897 43.8537 14.0299 43.8537 12.9954C43.8537 11.9607 43.5118 11.1009 42.8272 10.4164C42.1424 9.73181 41.2978 9.38987 40.2939 9.38987C39.2902 9.38987 38.4457 9.73181 37.7611 10.4164C37.0766 11.1009 36.734 11.9607 36.734 12.9954ZM40.2939 18.9969C38.6057 18.9969 37.1823 18.4187 36.0266 17.2627C34.8547 16.0911 34.2695 14.669 34.2695 12.9954C34.2695 11.3219 34.8547 9.89978 36.0266 8.72818C37.1823 7.57183 38.6057 6.99365 40.2939 6.99365C41.9827 6.99365 43.4048 7.57183 44.5611 8.72818C45.7324 9.89946 46.3185 11.3219 46.3185 12.9954C46.3185 14.669 45.7327 16.0911 44.5611 17.2627C43.4051 18.4187 41.9827 18.9969 40.2939 18.9969Z" fill="#2B2A29"/>
<path d="M52.0473 15.6203C52.7318 16.3048 53.5913 16.6474 54.6264 16.6474C55.6605 16.6474 56.5203 16.3048 57.2045 15.6203C57.8891 14.9205 58.231 14.0454 58.231 12.9954C58.231 11.9461 57.8887 11.0787 57.2045 10.3941C56.52 9.69498 55.6602 9.34413 54.6264 9.34413C53.591 9.34413 52.7318 9.69466 52.0473 10.3941C51.3628 11.0787 51.0202 11.9461 51.0202 12.9954C51.0202 14.0302 51.3628 14.9052 52.0473 15.6203ZM55.0141 6.99396C56.566 6.99396 57.904 7.58008 59.0305 8.75104C60.1405 9.90771 60.6964 11.3225 60.6964 12.9954C60.6964 14.6842 60.1405 16.107 59.0305 17.2633C57.9199 18.4191 56.5813 18.9975 55.0141 18.9975C53.2948 18.9975 51.9638 18.3581 51.0205 17.0801V23.2645H48.5566V7.29051H51.0205V8.9336C51.9489 7.64009 53.2798 6.99365 55.0141 6.99365V6.99396Z" fill="#2B2A29"/>
<path d="M69.0692 7.29336V9.66671H66.2399V15.1433C66.2399 15.6152 66.3456 15.9536 66.559 16.1587C66.7717 16.3645 67.0876 16.4781 67.5061 16.5007C67.9246 16.5242 68.4453 16.5207 69.0692 16.4896V18.7032C67.1829 18.9318 65.8291 18.7677 65.0074 18.2127C64.186 17.6573 63.7754 16.6343 63.7754 15.1433V9.66671H61.6758V7.29336H63.7754V4.09863H66.2399V7.29336H69.0692Z" fill="#2B2A29"/>
<path d="M72.6738 12.9954C72.6738 14.0302 73.0164 14.89 73.7009 15.5742C74.3854 16.2588 75.23 16.6007 76.2339 16.6007C77.2382 16.6007 78.0821 16.2588 78.7673 15.5742C79.4519 14.8897 79.7938 14.0299 79.7938 12.9954C79.7938 11.9607 79.4519 11.1009 78.7673 10.4164C78.0821 9.73181 77.2382 9.38987 76.2339 9.38987C75.2303 9.38987 74.3854 9.73181 73.7009 10.4164C73.0164 11.1009 72.6738 11.9607 72.6738 12.9954ZM76.2336 18.9969C74.5455 18.9969 73.1221 18.4187 71.9664 17.2627C70.7945 16.0911 70.209 14.669 70.209 12.9954C70.209 11.3219 70.7941 9.89978 71.9664 8.72818C73.1221 7.57183 74.5451 6.99365 76.2336 6.99365C77.9224 6.99365 79.3445 7.57183 80.5009 8.72818C81.6722 9.89946 82.258 11.3219 82.258 12.9954C82.258 14.669 81.6722 16.0911 80.5009 17.2627C79.3445 18.4187 77.9224 18.9969 76.2336 18.9969Z" fill="#2B2A29"/>
<path d="M96.9562 6.99365C98.2491 6.99365 99.2912 7.41276 100.082 8.24875C100.873 9.08569 101.269 10.2116 101.269 11.626V18.7004H98.8044V11.7858C98.8044 11.0101 98.6063 10.4021 98.211 9.9601C97.8151 9.51909 97.2757 9.29842 96.5911 9.29842C95.8148 9.29842 95.2065 9.55338 94.7648 10.0623C94.3235 10.5726 94.1031 11.3216 94.1031 12.3106V18.7004H91.6387V11.7858C91.6387 10.9949 91.452 10.3824 91.0799 9.94899C90.7068 9.51528 90.1778 9.29842 89.4936 9.29842C88.7332 9.29842 88.121 9.55718 87.6568 10.0741C87.1927 10.5916 86.9606 11.3368 86.9606 12.3106V18.7004H84.4961V7.29052H86.9606V8.65961C87.6911 7.54897 88.7786 6.99365 90.2239 6.99365C91.6841 6.99365 92.7639 7.59469 93.464 8.79708C94.2095 7.59469 95.3732 6.99365 96.9556 6.99365H96.9562Z" fill="#2B2A29"/>
<path d="M105.399 15.5547C105.87 15.5547 106.273 15.7223 106.609 16.0563C106.943 16.3913 107.111 16.7945 107.111 17.2664C107.111 17.7375 106.943 18.1414 106.609 18.4751C106.273 18.8101 105.87 18.9771 105.399 18.9771C104.927 18.9771 104.524 18.8097 104.189 18.4751C103.855 18.1414 103.688 17.7375 103.688 17.2664C103.688 16.7949 103.851 16.3913 104.178 16.0563C104.505 15.7223 104.912 15.5547 105.399 15.5547Z" fill="#2B2A29"/>
<path d="M117.422 13.4084V7.29297H119.887V18.7028H117.422V17.2426C116.661 18.4145 115.483 19 113.885 19C112.561 19 111.501 18.5777 110.702 17.7332C109.904 16.8889 109.504 15.7446 109.504 14.299V7.29329H111.968V14.0479C111.968 14.9001 112.196 15.5541 112.653 16.0107C113.109 16.4666 113.733 16.6952 114.524 16.6952C115.422 16.6952 116.129 16.4181 116.646 15.8621C117.163 15.3068 117.422 14.4895 117.422 13.4087V13.4084Z" fill="#2B2A29"/>
<path d="M131.023 8.93606L125.706 16.3749H131.251V18.7028H122.352V17.0594L127.691 9.6206H122.58V7.29297H131.023V8.93606Z" fill="#2B2A29"/>
</svg>
