<svg width="62" height="56" viewBox="0 0 62 56" fill="none" xmlns="http://www.w3.org/2000/svg">
<g clip-path="url(#clip0_1080_45931)">
<path fill-rule="evenodd" clip-rule="evenodd" d="M27.5903 17.4776V21.8855L32.2019 21.0304V21.6883L29.8961 22.1488C29.1275 22.3462 28.423 22.8067 28.423 23.7278V27.8725L35.7887 27.0172L33.2267 27.8725C32.1879 28.2761 31.9087 28.6351 31.8176 29.4515V35.2409H29.8961C28.6151 35.2409 27.7184 36.3593 27.6544 37.412V42.1488C34.976 42.0608 44.7324 42.2603 49.175 42.1261C51.2887 41.2936 51.2887 37.8067 47.5738 35.5699L51.0632 36.2278C50.5233 35.5513 49.8545 34.8082 49.0469 33.9909C53.7866 34.5172 58.762 34.0921 59.8713 31.3593L57.5655 7.34613L51.4168 9.1882V4.58293C49.6874 -2.85124 38.4147 0.569814 36.6213 9.1882V13.004L29.6399 14.6487C28.6151 14.9778 27.5903 16.2278 27.5903 17.4776ZM35.9168 17.8725V16.5567L53.018 12.5435V13.9909L35.9168 17.8725ZM38.799 8.99086V13.5303L48.7267 10.8988V5.43822C47.766 1.03033 39.6317 2.60927 38.799 8.99086Z" fill="url(#paint0_linear_1080_45931)"/>
<path fill-rule="evenodd" clip-rule="evenodd" d="M51.5445 41.8857C51.5305 41.9 51.5068 41.9136 51.4736 41.9265C51.4971 41.9134 51.5206 41.8997 51.5445 41.8857Z" fill="#D9D9D9"/>
<path d="M47.5737 35.5703C51.2886 37.8072 51.2886 41.294 49.175 42.1265C50.3975 42.0895 51.2178 42.0273 51.474 41.9269C51.4974 41.9137 51.521 41.9001 51.5448 41.8861C53.3183 40.8807 53.435 39.1995 51.0632 36.2282L47.5737 35.5703Z" fill="#73A33D"/>
<path d="M59.8713 31.3591C58.7619 34.0918 53.7865 34.517 49.0469 33.9906C49.8544 34.8079 50.5232 35.551 51.0632 36.2275C53.435 39.1988 53.3183 40.88 51.5448 41.8854C51.5308 41.8996 51.5071 41.9133 51.474 41.9262C51.0249 42.181 50.6516 42.2964 49.8155 42.4117C55.708 42.4117 60.6399 36.5564 60.0634 30.7012C60.0191 30.9668 59.984 31.113 59.8713 31.3591Z" fill="#58595B"/>
<path d="M2.09814 22.737V25.5659L4.98038 24.9738C5.67795 24.6795 5.91141 24.3562 6.13327 23.5923V20.8291L3.12294 21.487C2.54649 21.7502 2.22624 22.0791 2.09814 22.737Z" fill="#5E9540" stroke="#5E9540"/>
<path d="M2.35449 33.5265V35.8949L4.78838 35.7633C5.38629 35.5099 5.68706 35.1054 5.87722 34.4475V32.0791L3.44334 32.3423C2.94923 32.5688 2.46429 32.9599 2.35449 33.5265Z" fill="#5E9540" stroke="#5E9540"/>
<path d="M13.8833 26.224V29.2504L17.4701 28.7898C18.2963 28.4664 18.4883 28.2476 18.7511 27.4083V24.1846L15.1002 24.7767C14.4175 25.0658 14.035 25.5013 13.8833 26.224Z" fill="#66993F" stroke="#5E9540"/>
<path d="M14.0117 38.5262V41.092L17.0861 40.9604C17.9123 40.637 18.2325 40.484 18.4952 39.6446V36.9473L15.2287 37.1446C14.5241 37.342 14.0758 37.7367 14.0117 38.5262Z" fill="#66993F" stroke="#5E9540"/>
<path d="M20.4165 18.8553V22.6711L25.2843 21.7501L25.2921 21.7469C26.372 21.3215 26.4765 21.2802 26.8215 20.1711V16.0264L21.4413 17.2764C20.5429 17.6594 20.4165 18.0658 20.4165 18.8553Z" fill="#6D9E3E" stroke="#5E9540"/>
<path d="M20.4165 31.6839V35.1049L25.1562 34.9075C26.2434 34.4791 26.4757 34.4404 26.8215 33.3286V29.3154L21.8896 29.8417C20.9913 30.2248 20.4165 30.8944 20.4165 31.6839Z" fill="#6D9E3E" stroke="#5E9540"/>
<path d="M35.7886 52.4082V55.4345H36.397V53.9543L35.7886 52.4082Z" fill="#58595B"/>
<path d="M36.1089 48.8555L37.9023 53.3292L38.182 52.6055L36.6853 48.8555H36.1089Z" fill="#58595B"/>
<path fill-rule="evenodd" clip-rule="evenodd" d="M34.2515 55.4344V48.8555H36.1089L37.9023 53.3292L38.1821 52.6055L39.6316 48.8555H41.5531V55.4344H40.08L40.0159 53.9542V52.4081L38.799 55.4344H37.0056L36.3971 53.9542L35.7887 52.4081V55.4344H34.2515Z" fill="#A4C234"/>
<path d="M41.5527 48.8555V55.4344H42.1932V48.8555H41.5527Z" fill="#58595B"/>
<path d="M40.0158 52.4082L38.7988 55.4345H39.3753L40.0158 53.9543V52.4082Z" fill="#58595B"/>
<path fill-rule="evenodd" clip-rule="evenodd" d="M9.27197 48.7891H12.8588C15.4207 49.3154 15.0364 53.197 12.8588 53.197H11.5137H10.9373V55.4338H9.27197V48.7891ZM10.9373 51.8812V50.1706H11.5137H12.4104C13.3071 50.4338 13.3071 51.6838 12.4104 51.8812H11.5137H10.9373Z" fill="#A4C234"/>
<path d="M10.937 53.1973V55.4341H11.5135V53.1973H10.937Z" fill="#58595B"/>
<path d="M10.937 50.1709V51.8814H11.5135V50.1709H10.937Z" fill="#58595B"/>
<path d="M12.8589 48.7891C15.4209 49.3154 15.0366 53.197 12.8589 53.197H13.2432C15.8052 52.9996 15.9333 49.3812 13.2432 48.7891H12.8589Z" fill="#58595B"/>
<path d="M3.31537 50.3027C0.817479 50.5659 1.26583 53.9212 3.31537 53.9212C1.90633 52.9342 1.84228 51.3552 3.31537 50.3027Z" fill="#58595B"/>
<path fill-rule="evenodd" clip-rule="evenodd" d="M3.31527 48.8555C-0.975915 48.9933 -1.23241 55.1714 3.31527 55.4345C8.37519 55.1055 7.41444 48.7241 3.31527 48.8555ZM3.31527 50.303C5.62111 50.2372 6.06945 53.9214 3.31527 53.9214C1.26573 53.9214 0.817383 50.5662 3.31527 50.303Z" fill="#A4C234"/>
<path d="M3.31543 48.8557C7.4146 48.7242 8.37535 55.1057 3.31543 55.4346C8.3754 55.7274 9.07994 48.5267 3.31543 48.8557Z" fill="#58595B"/>
<path d="M28.0873 50.3135C25.5895 50.5766 26.0378 53.9319 28.0873 53.9319C26.6783 52.9449 26.6143 51.366 28.0873 50.3135Z" fill="#58595B"/>
<path fill-rule="evenodd" clip-rule="evenodd" d="M28.0872 48.8555C23.796 48.9933 23.5396 55.1714 28.0872 55.4345C33.1472 55.1055 32.1864 48.7241 28.0872 48.8555ZM28.0872 50.3137C30.3931 50.2479 30.8415 53.9321 28.0872 53.9321C26.0378 53.9321 25.5894 50.5768 28.0872 50.3137Z" fill="#A4C234"/>
<path d="M28.0869 48.8557C32.1861 48.7242 33.1468 55.1057 28.0869 55.4346C33.147 55.7274 33.8515 48.5267 28.0869 48.8557Z" fill="#58595B"/>
<path fill-rule="evenodd" clip-rule="evenodd" d="M17.2139 48.8555H22.3378V50.237H21.1849H20.5444V55.4344H18.8792V50.237H17.2139V48.8555Z" fill="#A4C234"/>
<path d="M22.3379 48.8555V50.237H22.9143V48.8555H22.3379Z" fill="#565859"/>
<path d="M20.5444 50.2373V55.4347H21.1849V50.2373H20.5444Z" fill="#565859"/>
<path d="M45.6519 54.6449C45.6519 55.081 45.3078 55.4344 44.8833 55.4344H45.396C45.8205 55.4344 46.1646 55.081 46.1646 54.6449C46.1646 54.209 45.8205 53.8555 45.396 53.8555H44.8833C45.3078 53.8555 45.6519 54.209 45.6519 54.6449Z" fill="#58595B"/>
<path d="M44.8833 55.4344C45.3079 55.4344 45.6519 55.081 45.6519 54.6449C45.6519 54.209 45.3079 53.8555 44.8833 53.8555C44.4588 53.8555 44.1147 54.209 44.1147 54.6449C44.1147 55.081 44.4588 55.4344 44.8833 55.4344Z" fill="#A4C234"/>
<path d="M49.7511 48.8555H48.2139V52.7103C48.5902 54.6785 50.045 55.5765 51.4163 55.4344C52.6119 55.3105 53.744 54.3957 54.0424 52.7103V48.8556L52.5692 48.8555V52.7103C52.38 53.4599 51.9171 53.8581 51.4163 53.9493C50.7304 54.0742 49.9732 53.6231 49.7511 52.7103V48.8555Z" fill="#A4C234"/>
<path d="M49.7515 48.8555V52.7103C49.9736 53.6231 50.7308 54.0742 51.4168 53.9493C50.7763 53.763 50.5034 53.3199 50.392 52.7103V48.8555H49.7515Z" fill="#58595B"/>
<path d="M54.0425 48.8556V52.7103C53.7442 54.3957 52.6121 55.3105 51.4165 55.4344C53.1458 55.4344 54.1066 55.013 54.683 52.7103V48.8555L54.0425 48.8556Z" fill="#58595B"/>
<path d="M61.3442 48.8555H56.6045V50.237H59.5508L56.6045 54.1844V55.4344H61.3442V54.0528H59.0384H58.526L61.3442 50.1055V48.8555Z" fill="#A4C234"/>
<path d="M61.3441 48.8555V50.1055L58.5259 54.0528H59.0383L61.9205 50.237V48.8556L61.3441 48.8555Z" fill="#58595B"/>
<path d="M61.3442 54.0527V55.4343H61.9207V54.0527H61.3442Z" fill="#58595B"/>
</g>
<defs>
<linearGradient id="paint0_linear_1080_45931" x1="25.2205" y1="23.1974" x2="61.6067" y2="30.1322" gradientUnits="userSpaceOnUse">
<stop stop-color="#73A33D"/>
<stop offset="1" stop-color="#B0CA35"/>
</linearGradient>
<clipPath id="clip0_1080_45931">
<rect width="62" height="55" fill="white" transform="translate(0 0.5)"/>
</clipPath>
</defs>
</svg>
