<svg width="75" height="75" viewBox="0 0 75 75" fill="none" xmlns="http://www.w3.org/2000/svg">
<path d="M2.65798 0.616211H0.666992V2.6072H2.65798V0.616211Z" fill="black"/>
<path d="M4.64897 0.616211H2.65798V2.6072H4.64897V0.616211Z" fill="black"/>
<path d="M6.63997 0.616211H4.64897V2.6072H6.63997V0.616211Z" fill="black"/>
<path d="M8.63096 0.616211H6.63997V2.6072H8.63096V0.616211Z" fill="black"/>
<path d="M10.6219 0.616211H8.63096V2.6072H10.6219V0.616211Z" fill="black"/>
<path d="M12.6129 0.616211H10.6219V2.6072H12.6129V0.616211Z" fill="black"/>
<path d="M14.6039 0.616211H12.6129V2.6072H14.6039V0.616211Z" fill="black"/>
<path d="M18.5859 0.616211H16.5949V2.6072H18.5859V0.616211Z" fill="black"/>
<path d="M20.5769 0.616211H18.5859V2.6072H20.5769V0.616211Z" fill="black"/>
<path d="M30.5319 0.616211H28.5409V2.6072H30.5319V0.616211Z" fill="black"/>
<path d="M36.5048 0.616211H34.5138V2.6072H36.5048V0.616211Z" fill="black"/>
<path d="M42.4778 0.616211H40.4868V2.6072H42.4778V0.616211Z" fill="black"/>
<path d="M44.4688 0.616211H42.4778V2.6072H44.4688V0.616211Z" fill="black"/>
<path d="M50.4418 0.616211H48.4508V2.6072H50.4418V0.616211Z" fill="black"/>
<path d="M52.4328 0.616211H50.4418V2.6072H52.4328V0.616211Z" fill="black"/>
<path d="M54.4237 0.616211H52.4328V2.6072H54.4237V0.616211Z" fill="black"/>
<path d="M56.4147 0.616211H54.4237V2.6072H56.4147V0.616211Z" fill="black"/>
<path d="M58.4057 0.616211H56.4147V2.6072H58.4057V0.616211Z" fill="black"/>
<path d="M62.3877 0.616211H60.3967V2.6072H62.3877V0.616211Z" fill="black"/>
<path d="M64.3787 0.616211H62.3877V2.6072H64.3787V0.616211Z" fill="black"/>
<path d="M66.3697 0.616211H64.3787V2.6072H66.3697V0.616211Z" fill="black"/>
<path d="M68.3607 0.616211H66.3697V2.6072H68.3607V0.616211Z" fill="black"/>
<path d="M70.3517 0.616211H68.3607V2.6072H70.3517V0.616211Z" fill="black"/>
<path d="M72.3427 0.616211H70.3517V2.6072H72.3427V0.616211Z" fill="black"/>
<path d="M74.3337 0.616211H72.3427V2.6072H74.3337V0.616211Z" fill="black"/>
<path d="M2.65798 2.6072H0.666992V4.59819H2.65798V2.6072Z" fill="black"/>
<path d="M14.6039 2.6072H12.6129V4.59819H14.6039V2.6072Z" fill="black"/>
<path d="M22.5679 2.6072H20.5769V4.59819H22.5679V2.6072Z" fill="black"/>
<path d="M32.5229 2.6072H30.5319L30.5319 4.59819H32.5229V2.6072Z" fill="black"/>
<path d="M36.5048 2.6072H34.5138V4.59819H36.5048V2.6072Z" fill="black"/>
<path d="M40.4868 2.6072H38.4958V4.59819H40.4868V2.6072Z" fill="black"/>
<path d="M42.4778 2.6072H40.4868V4.59819H42.4778V2.6072Z" fill="black"/>
<path d="M46.4598 2.6072H44.4688V4.59819H46.4598V2.6072Z" fill="black"/>
<path d="M52.4328 2.6072H50.4418V4.59819H52.4328V2.6072Z" fill="black"/>
<path d="M54.4237 2.6072H52.4328V4.59819H54.4237V2.6072Z" fill="black"/>
<path d="M62.3877 2.6072H60.3967V4.59819H62.3877V2.6072Z" fill="black"/>
<path d="M74.3337 2.6072H72.3427V4.59819H74.3337V2.6072Z" fill="black"/>
<path d="M2.65798 4.59819H0.666992V6.58918H2.65798V4.59819Z" fill="black"/>
<path d="M6.63997 4.59819H4.64897V6.58918H6.63997V4.59819Z" fill="black"/>
<path d="M8.63096 4.59819H6.63997V6.58918H8.63096V4.59819Z" fill="black"/>
<path d="M10.6219 4.59819H8.63096V6.58918H10.6219V4.59819Z" fill="black"/>
<path d="M14.6039 4.59819H12.6129V6.58918H14.6039V4.59819Z" fill="black"/>
<path d="M22.5679 4.59819H20.5769V6.58918H22.5679V4.59819Z" fill="black"/>
<path d="M26.5499 4.59819H24.5589V6.58918H26.5499V4.59819Z" fill="black"/>
<path d="M30.5319 4.59819H28.5409V6.58918H30.5319L30.5319 4.59819Z" fill="black"/>
<path d="M34.5138 4.59819H32.5229L32.5228 6.58918H34.5138V4.59819Z" fill="black"/>
<path d="M38.4958 4.59819H36.5048L36.5048 6.58918H38.4958V4.59819Z" fill="black"/>
<path d="M40.4868 4.59819H38.4958V6.58918H40.4868V4.59819Z" fill="black"/>
<path d="M44.4688 4.59819H42.4778V6.58918H44.4688V4.59819Z" fill="black"/>
<path d="M46.4598 4.59819H44.4688V6.58918H46.4598V4.59819Z" fill="black"/>
<path d="M52.4328 4.59819H50.4418V6.58918H52.4328V4.59819Z" fill="black"/>
<path d="M54.4237 4.59819H52.4328V6.58918H54.4237V4.59819Z" fill="black"/>
<path d="M56.4147 4.59819H54.4237V6.58918H56.4147V4.59819Z" fill="black"/>
<path d="M62.3877 4.59819H60.3967V6.58918H62.3877V4.59819Z" fill="black"/>
<path d="M66.3697 4.59819H64.3787V6.58918H66.3697V4.59819Z" fill="black"/>
<path d="M68.3607 4.59819H66.3697V6.58918H68.3607V4.59819Z" fill="black"/>
<path d="M70.3517 4.59819H68.3607V6.58918H70.3517V4.59819Z" fill="black"/>
<path d="M74.3337 4.59819H72.3427V6.58918H74.3337V4.59819Z" fill="black"/>
<path d="M2.65798 6.58918H0.666992V8.58017H2.65798V6.58918Z" fill="black"/>
<path d="M6.63997 6.58918H4.64897V8.58017H6.63997V6.58918Z" fill="black"/>
<path d="M8.63096 6.58918H6.63997V8.58017H8.63096V6.58918Z" fill="black"/>
<path d="M10.6219 6.58918H8.63096V8.58017H10.6219V6.58918Z" fill="black"/>
<path d="M14.6039 6.58918H12.6129V8.58017H14.6039V6.58918Z" fill="black"/>
<path d="M18.5859 6.58918H16.5949V8.58017H18.5859V6.58918Z" fill="black"/>
<path d="M26.5499 6.58918H24.5589V8.58017H26.5499V6.58918Z" fill="black"/>
<path d="M32.5228 6.58918H30.5319L30.5319 8.58017H32.5229L32.5228 6.58918Z" fill="black"/>
<path d="M40.4868 6.58918H38.4958V8.58017H40.4868V6.58918Z" fill="black"/>
<path d="M44.4688 6.58918H42.4778V8.58017H44.4688V6.58918Z" fill="black"/>
<path d="M46.4598 6.58918H44.4688V8.58017H46.4598V6.58918Z" fill="black"/>
<path d="M48.4508 6.58918H46.4598V8.58017H48.4508V6.58918Z" fill="black"/>
<path d="M50.4418 6.58918H48.4508V8.58017H50.4418V6.58918Z" fill="black"/>
<path d="M54.4237 6.58918H52.4328V8.58017H54.4237V6.58918Z" fill="black"/>
<path d="M56.4147 6.58918H54.4237V8.58017H56.4147V6.58918Z" fill="black"/>
<path d="M62.3877 6.58918H60.3967V8.58017H62.3877V6.58918Z" fill="black"/>
<path d="M66.3697 6.58918H64.3787V8.58017H66.3697V6.58918Z" fill="black"/>
<path d="M68.3607 6.58918H66.3697V8.58017H68.3607V6.58918Z" fill="black"/>
<path d="M70.3517 6.58918H68.3607V8.58017H70.3517V6.58918Z" fill="black"/>
<path d="M74.3337 6.58918H72.3427V8.58017H74.3337V6.58918Z" fill="black"/>
<path d="M2.65798 8.58017H0.666992V10.5712H2.65798V8.58017Z" fill="black"/>
<path d="M6.63997 8.58017H4.64897V10.5712H6.63997V8.58017Z" fill="black"/>
<path d="M8.63096 8.58017H6.63997V10.5712H8.63096V8.58017Z" fill="black"/>
<path d="M10.6219 8.58017H8.63096V10.5712H10.6219V8.58017Z" fill="black"/>
<path d="M14.6039 8.58017H12.6129V10.5712H14.6039V8.58017Z" fill="black"/>
<path d="M18.5859 8.58017H16.5949V10.5712H18.5859V8.58017Z" fill="black"/>
<path d="M22.5679 8.58017H20.5769V10.5712H22.5679V8.58017Z" fill="black"/>
<path d="M26.5499 8.58017H24.5589V10.5712H26.5499V8.58017Z" fill="black"/>
<path d="M32.5229 8.58017H30.5319V10.5712H32.5229V8.58017Z" fill="black"/>
<path d="M34.5138 8.58017H32.5229V10.5712H34.5138V8.58017Z" fill="black"/>
<path d="M38.4958 8.58017H36.5048V10.5712H38.4958V8.58017Z" fill="black"/>
<path d="M40.4868 8.58017H38.4958V10.5712H40.4868V8.58017Z" fill="black"/>
<path d="M42.4778 8.58017H40.4868V10.5712H42.4778V8.58017Z" fill="black"/>
<path d="M56.4147 8.58017H54.4237V10.5712H56.4147V8.58017Z" fill="black"/>
<path d="M58.4057 8.58017H56.4147V10.5712H58.4057V8.58017Z" fill="black"/>
<path d="M62.3877 8.58017H60.3967V10.5712H62.3877V8.58017Z" fill="black"/>
<path d="M66.3697 8.58017H64.3787V10.5712H66.3697V8.58017Z" fill="black"/>
<path d="M68.3607 8.58017H66.3697V10.5712H68.3607V8.58017Z" fill="black"/>
<path d="M70.3517 8.58017H68.3607V10.5712H70.3517V8.58017Z" fill="black"/>
<path d="M74.3337 8.58017H72.3427V10.5712H74.3337V8.58017Z" fill="black"/>
<path d="M2.65798 10.5712H0.666992V12.5622H2.65798V10.5712Z" fill="black"/>
<path d="M14.6039 10.5712H12.6129V12.5622H14.6039V10.5712Z" fill="black"/>
<path d="M18.5859 10.5712H16.5949V12.5622H18.5859V10.5712Z" fill="black"/>
<path d="M20.5769 10.5712H18.5859V12.5622H20.5769V10.5712Z" fill="black"/>
<path d="M26.5499 10.5712H24.5589V12.5622H26.5499V10.5712Z" fill="black"/>
<path d="M28.5409 10.5712H26.5499V12.5622H28.5409V10.5712Z" fill="black"/>
<path d="M30.5319 10.5712H28.5409V12.5622H30.5319L30.5319 10.5712Z" fill="black"/>
<path d="M32.5229 10.5712H30.5319L30.5319 12.5622H32.5229V10.5712Z" fill="black"/>
<path d="M36.5048 10.5712H34.5138V12.5622H36.5048L36.5048 10.5712Z" fill="black"/>
<path d="M38.4958 10.5712H36.5048L36.5048 12.5622H38.4958V10.5712Z" fill="black"/>
<path d="M40.4868 10.5712H38.4958V12.5622H40.4868V10.5712Z" fill="black"/>
<path d="M42.4778 10.5712H40.4868V12.5622H42.4778V10.5712Z" fill="black"/>
<path d="M52.4328 10.5712H50.4418V12.5622H52.4328V10.5712Z" fill="black"/>
<path d="M54.4237 10.5712H52.4328V12.5622H54.4237V10.5712Z" fill="black"/>
<path d="M62.3877 10.5712H60.3967V12.5622H62.3877V10.5712Z" fill="black"/>
<path d="M74.3337 10.5712H72.3427V12.5622H74.3337V10.5712Z" fill="black"/>
<path d="M2.65798 12.5622H0.666992V14.5531H2.65798V12.5622Z" fill="black"/>
<path d="M4.64897 12.5622H2.65798V14.5531H4.64897V12.5622Z" fill="black"/>
<path d="M6.63997 12.5622H4.64897V14.5531H6.63997V12.5622Z" fill="black"/>
<path d="M8.63096 12.5622H6.63997V14.5531H8.63096V12.5622Z" fill="black"/>
<path d="M10.6219 12.5622H8.63096V14.5531H10.6219V12.5622Z" fill="black"/>
<path d="M12.6129 12.5622H10.6219V14.5531H12.6129V12.5622Z" fill="black"/>
<path d="M14.6039 12.5622H12.6129V14.5531H14.6039V12.5622Z" fill="black"/>
<path d="M18.5859 12.5622H16.5949V14.5531H18.5859V12.5622Z" fill="black"/>
<path d="M22.5679 12.5622H20.5769V14.5531H22.5679V12.5622Z" fill="black"/>
<path d="M26.5499 12.5622H24.5589V14.5531H26.5499V12.5622Z" fill="black"/>
<path d="M30.5319 12.5622H28.5409V14.5531H30.5319V12.5622Z" fill="black"/>
<path d="M34.5138 12.5622H32.5229L32.5228 14.5531H34.5138V12.5622Z" fill="black"/>
<path d="M38.4958 12.5622H36.5048L36.5048 14.5531H38.4958V12.5622Z" fill="black"/>
<path d="M42.4778 12.5622H40.4868V14.5531H42.4778V12.5622Z" fill="black"/>
<path d="M46.4598 12.5622H44.4688V14.5531H46.4598V12.5622Z" fill="black"/>
<path d="M50.4418 12.5622H48.4508V14.5531H50.4418V12.5622Z" fill="black"/>
<path d="M54.4237 12.5622H52.4328V14.5531H54.4237V12.5622Z" fill="black"/>
<path d="M58.4057 12.5622H56.4147V14.5531H58.4057V12.5622Z" fill="black"/>
<path d="M62.3877 12.5622H60.3967V14.5531H62.3877V12.5622Z" fill="black"/>
<path d="M64.3787 12.5622H62.3877V14.5531H64.3787V12.5622Z" fill="black"/>
<path d="M66.3697 12.5622H64.3787V14.5531H66.3697V12.5622Z" fill="black"/>
<path d="M68.3607 12.5622H66.3697V14.5531H68.3607V12.5622Z" fill="black"/>
<path d="M70.3517 12.5622H68.3607V14.5531H70.3517V12.5622Z" fill="black"/>
<path d="M72.3427 12.5622H70.3517V14.5531H72.3427V12.5622Z" fill="black"/>
<path d="M74.3337 12.5622H72.3427V14.5531H74.3337V12.5622Z" fill="black"/>
<path d="M18.5859 14.5531H16.5949V16.5441H18.5859V14.5531Z" fill="black"/>
<path d="M20.5769 14.5531H18.5859V16.5441H20.5769V14.5531Z" fill="black"/>
<path d="M28.5409 14.5531H26.5499L26.5499 16.5441H28.5409V14.5531Z" fill="black"/>
<path d="M30.5319 14.5531H28.5409V16.5441H30.5319V14.5531Z" fill="black"/>
<path d="M32.5228 14.5531H30.5319V16.5441H32.5229L32.5228 14.5531Z" fill="black"/>
<path d="M34.5138 14.5531H32.5228L32.5229 16.5441H34.5138V14.5531Z" fill="black"/>
<path d="M36.5048 14.5531H34.5138V16.5441H36.5048L36.5048 14.5531Z" fill="black"/>
<path d="M40.4868 14.5531H38.4958V16.5441H40.4868V14.5531Z" fill="black"/>
<path d="M42.4778 14.5531H40.4868V16.5441H42.4778V14.5531Z" fill="black"/>
<path d="M44.4688 14.5531H42.4778V16.5441H44.4688V14.5531Z" fill="black"/>
<path d="M52.4328 14.5531H50.4418V16.5441H52.4328V14.5531Z" fill="black"/>
<path d="M58.4057 14.5531H56.4147V16.5441H58.4057V14.5531Z" fill="black"/>
<path d="M2.65798 16.5441H0.666992V18.5351H2.65798V16.5441Z" fill="black"/>
<path d="M4.64897 16.5441H2.65798V18.5351H4.64897V16.5441Z" fill="black"/>
<path d="M6.63997 16.5441H4.64897V18.5351H6.63997V16.5441Z" fill="black"/>
<path d="M10.6219 16.5441H8.63096V18.5351H10.6219V16.5441Z" fill="black"/>
<path d="M14.6039 16.5441H12.6129V18.5351H14.6039V16.5441Z" fill="black"/>
<path d="M18.5859 16.5441H16.5949V18.5351H18.5859V16.5441Z" fill="black"/>
<path d="M22.5679 16.5441H20.5769V18.5351H22.5679V16.5441Z" fill="black"/>
<path d="M24.5589 16.5441H22.5679V18.5351H24.5589V16.5441Z" fill="black"/>
<path d="M26.5499 16.5441H24.5589V18.5351H26.5499L26.5499 16.5441Z" fill="black"/>
<path d="M28.5409 16.5441H26.5499L26.5499 18.5351H28.5409V16.5441Z" fill="black"/>
<path d="M30.5319 16.5441H28.5409V18.5351H30.5319V16.5441Z" fill="black"/>
<path d="M38.4958 16.5441H36.5048L36.5048 18.5351H38.4958V16.5441Z" fill="black"/>
<path d="M46.4598 16.5441H44.4688V18.5351H46.4598V16.5441Z" fill="black"/>
<path d="M48.4508 16.5441H46.4598V18.5351H48.4508V16.5441Z" fill="black"/>
<path d="M56.4147 16.5441H54.4237V18.5351H56.4147V16.5441Z" fill="black"/>
<path d="M58.4057 16.5441H56.4147V18.5351H58.4057V16.5441Z" fill="black"/>
<path d="M60.3967 16.5441H58.4057V18.5351H60.3967V16.5441Z" fill="black"/>
<path d="M62.3877 16.5441H60.3967V18.5351H62.3877V16.5441Z" fill="black"/>
<path d="M64.3787 16.5441H62.3877V18.5351H64.3787V16.5441Z" fill="black"/>
<path d="M66.3697 16.5441H64.3787V18.5351H66.3697V16.5441Z" fill="black"/>
<path d="M68.3607 16.5441H66.3697V18.5351H68.3607V16.5441Z" fill="black"/>
<path d="M74.3337 16.5441H72.3427V18.5351H74.3337V16.5441Z" fill="black"/>
<path d="M4.64897 18.5351H2.65798V20.5261H4.64897V18.5351Z" fill="black"/>
<path d="M8.63096 18.5351H6.63997V20.5261H8.63096V18.5351Z" fill="black"/>
<path d="M10.6219 18.5351H8.63096V20.5261H10.6219V18.5351Z" fill="black"/>
<path d="M12.6129 18.5351H10.6219V20.5261H12.6129V18.5351Z" fill="black"/>
<path d="M16.5949 18.5351H14.6039V20.5261H16.5949V18.5351Z" fill="black"/>
<path d="M20.5769 18.5351H18.5859V20.5261H20.5769V18.5351Z" fill="black"/>
<path d="M24.5589 18.5351H22.5679V20.5261H24.5589V18.5351Z" fill="black"/>
<path d="M28.5409 18.5351H26.5499L26.5499 20.5261H28.5409V18.5351Z" fill="black"/>
<path d="M30.5319 18.5351H28.5409V20.5261H30.5319V18.5351Z" fill="black"/>
<path d="M34.5138 18.5351H32.5228V20.5261H34.5138V18.5351Z" fill="black"/>
<path d="M38.4958 18.5351H36.5048V20.5261H38.4958V18.5351Z" fill="black"/>
<path d="M48.4508 18.5351H46.4598V20.5261H48.4508V18.5351Z" fill="black"/>
<path d="M56.4147 18.5351H54.4237V20.5261H56.4147V18.5351Z" fill="black"/>
<path d="M64.3787 18.5351H62.3877V20.5261H64.3787V18.5351Z" fill="black"/>
<path d="M68.3607 18.5351H66.3697V20.5261H68.3607V18.5351Z" fill="black"/>
<path d="M70.3517 18.5351H68.3607V20.5261H70.3517V18.5351Z" fill="black"/>
<path d="M72.3427 18.5351H70.3517V20.5261H72.3427V18.5351Z" fill="black"/>
<path d="M74.3337 18.5351H72.3427V20.5261H74.3337V18.5351Z" fill="black"/>
<path d="M2.65798 20.5261H0.666992V22.5171H2.65798V20.5261Z" fill="black"/>
<path d="M4.64897 20.5261H2.65798V22.5171H4.64897V20.5261Z" fill="black"/>
<path d="M12.6129 20.5261H10.6219V22.5171H12.6129V20.5261Z" fill="black"/>
<path d="M14.6039 20.5261H12.6129V22.5171H14.6039V20.5261Z" fill="black"/>
<path d="M20.5769 20.5261H18.5859V22.5171H20.5769V20.5261Z" fill="black"/>
<path d="M26.5499 20.5261H24.5589L24.5589 22.5171H26.5499L26.5499 20.5261Z" fill="black"/>
<path d="M28.5409 20.5261H26.5499L26.5499 22.5171H28.5409V20.5261Z" fill="black"/>
<path d="M36.5048 20.5261H34.5138V22.5171H36.5048L36.5048 20.5261Z" fill="black"/>
<path d="M40.4868 20.5261H38.4958V22.5171H40.4868V20.5261Z" fill="black"/>
<path d="M42.4778 20.5261H40.4868V22.5171H42.4778V20.5261Z" fill="black"/>
<path d="M48.4508 20.5261H46.4598V22.5171H48.4508V20.5261Z" fill="black"/>
<path d="M50.4418 20.5261H48.4508V22.5171H50.4418V20.5261Z" fill="black"/>
<path d="M54.4237 20.5261H52.4328V22.5171H54.4237V20.5261Z" fill="black"/>
<path d="M56.4147 20.5261H54.4237V22.5171H56.4147V20.5261Z" fill="black"/>
<path d="M60.3967 20.5261H58.4057V22.5171H60.3967V20.5261Z" fill="black"/>
<path d="M64.3787 20.5261H62.3877V22.5171H64.3787V20.5261Z" fill="black"/>
<path d="M66.3697 20.5261H64.3787V22.5171H66.3697V20.5261Z" fill="black"/>
<path d="M68.3607 20.5261H66.3697V22.5171H68.3607V20.5261Z" fill="black"/>
<path d="M4.64897 22.5171H2.65798V24.5081H4.64897V22.5171Z" fill="black"/>
<path d="M10.6219 22.5171H8.63096V24.5081H10.6219V22.5171Z" fill="black"/>
<path d="M18.5859 22.5171H16.5949V24.5081H18.5859V22.5171Z" fill="black"/>
<path d="M24.5589 22.5171H22.5679V24.5081H24.5589L24.5589 22.5171Z" fill="black"/>
<path d="M26.5499 22.5171H24.5589L24.5589 24.5081H26.5499V22.5171Z" fill="black"/>
<path d="M28.5409 22.5171H26.5499V24.5081H28.5409V22.5171Z" fill="black"/>
<path d="M30.5319 22.5171H28.5409V24.5081H30.5319V22.5171Z" fill="black"/>
<path d="M32.5229 22.5171H30.5319V24.5081H32.5229V22.5171Z" fill="black"/>
<path d="M34.5138 22.5171H32.5229V24.5081H34.5138V22.5171Z" fill="black"/>
<path d="M38.4958 22.5171H36.5048L36.5048 24.5081H38.4958V22.5171Z" fill="black"/>
<path d="M40.4868 22.5171H38.4958V24.5081H40.4868V22.5171Z" fill="black"/>
<path d="M48.4508 22.5171H46.4598V24.5081H48.4508V22.5171Z" fill="black"/>
<path d="M52.4328 22.5171H50.4418V24.5081H52.4328V22.5171Z" fill="black"/>
<path d="M56.4147 22.5171H54.4237V24.5081H56.4147V22.5171Z" fill="black"/>
<path d="M70.3517 22.5171H68.3607V24.5081H70.3517V22.5171Z" fill="black"/>
<path d="M2.65798 24.5081L0.666992 24.5081V26.4991H2.65798V24.5081Z" fill="black"/>
<path d="M8.63096 24.5081L6.63997 24.5081V26.4991H8.63096V24.5081Z" fill="black"/>
<path d="M10.6219 24.5081H8.63096V26.4991H10.6219V24.5081Z" fill="black"/>
<path d="M14.6039 24.5081H12.6129V26.4991H14.6039V24.5081Z" fill="black"/>
<path d="M20.5769 24.5081L18.5859 24.5081V26.4991H20.5769V24.5081Z" fill="black"/>
<path d="M24.5589 24.5081H22.5679V26.4991H24.5589V24.5081Z" fill="black"/>
<path d="M30.5319 24.5081H28.5409V26.4991H30.5319V24.5081Z" fill="black"/>
<path d="M36.5048 24.5081H34.5138V26.4991H36.5048L36.5048 24.5081Z" fill="black"/>
<path d="M38.4958 24.5081H36.5048L36.5048 26.4991H38.4958V24.5081Z" fill="black"/>
<path d="M42.4778 24.5081L40.4868 24.5081V26.4991H42.4778V24.5081Z" fill="black"/>
<path d="M46.4598 24.5081L44.4688 24.5081V26.4991H46.4598V24.5081Z" fill="black"/>
<path d="M48.4508 24.5081H46.4598V26.4991H48.4508V24.5081Z" fill="black"/>
<path d="M50.4418 24.5081H48.4508V26.4991H50.4418V24.5081Z" fill="black"/>
<path d="M56.4147 24.5081H54.4237V26.4991H56.4147V24.5081Z" fill="black"/>
<path d="M58.4057 24.5081L56.4147 24.5081V26.4991H58.4057V24.5081Z" fill="black"/>
<path d="M64.3787 24.5081H62.3877V26.4991H64.3787V24.5081Z" fill="black"/>
<path d="M66.3697 24.5081H64.3787V26.4991H66.3697V24.5081Z" fill="black"/>
<path d="M70.3517 24.5081H68.3607V26.4991H70.3517V24.5081Z" fill="black"/>
<path d="M72.3427 24.5081L70.3517 24.5081V26.4991H72.3427V24.5081Z" fill="black"/>
<path d="M74.3337 24.5081H72.3427V26.4991H74.3337V24.5081Z" fill="black"/>
<path d="M4.64897 26.4991L2.65798 26.4991V28.4901H4.64897V26.4991Z" fill="black"/>
<path d="M10.6219 26.4991H8.63096V28.4901H10.6219V26.4991Z" fill="black"/>
<path d="M20.5769 26.4991H18.5859V28.4901H20.5769V26.4991Z" fill="black"/>
<path d="M22.5679 26.4991H20.5769V28.4901H22.5679V26.4991Z" fill="black"/>
<path d="M26.5499 26.4991L24.5589 26.4991L24.5589 28.4901H26.5499V26.4991Z" fill="black"/>
<path d="M28.5409 26.4991L26.5499 26.4991V28.4901H28.5409V26.4991Z" fill="black"/>
<path d="M32.5229 26.4991L30.5319 26.4991L30.5319 28.4901H32.5229V26.4991Z" fill="black"/>
<path d="M34.5138 26.4991L32.5229 26.4991V28.4901H34.5138V26.4991Z" fill="black"/>
<path d="M36.5048 26.4991H34.5138V28.4901H36.5048V26.4991Z" fill="black"/>
<path d="M40.4868 26.4991H38.4958V28.4901H40.4868V26.4991Z" fill="black"/>
<path d="M42.4778 26.4991H40.4868V28.4901H42.4778V26.4991Z" fill="black"/>
<path d="M60.3967 26.4991L58.4057 26.4991V28.4901H60.3967V26.4991Z" fill="black"/>
<path d="M68.3607 26.4991H66.3697V28.4901H68.3607V26.4991Z" fill="black"/>
<path d="M72.3427 26.4991H70.3517V28.4901H72.3427V26.4991Z" fill="black"/>
<path d="M74.3337 26.4991H72.3427V28.4901H74.3337V26.4991Z" fill="black"/>
<path d="M2.65798 28.4901H0.666992V30.4811H2.65798V28.4901Z" fill="black"/>
<path d="M6.63997 28.4901H4.64897V30.4811H6.63997V28.4901Z" fill="black"/>
<path d="M14.6039 28.4901H12.6129V30.4811H14.6039V28.4901Z" fill="black"/>
<path d="M16.5949 28.4901H14.6039V30.4811H16.5949V28.4901Z" fill="black"/>
<path d="M28.5409 28.4901H26.5499L26.5499 30.4811H28.5409V28.4901Z" fill="black"/>
<path d="M30.5319 28.4901H28.5409V30.4811H30.5319L30.5319 28.4901Z" fill="black"/>
<path d="M38.4958 28.4901H36.5048L36.5048 30.4811H38.4958V28.4901Z" fill="black"/>
<path d="M44.4688 28.4901H42.4778V30.4811H44.4688V28.4901Z" fill="black"/>
<path d="M50.4418 28.4901H48.4508V30.4811H50.4418V28.4901Z" fill="black"/>
<path d="M52.4328 28.4901H50.4418V30.4811H52.4328V28.4901Z" fill="black"/>
<path d="M56.4147 28.4901H54.4237V30.4811H56.4147V28.4901Z" fill="black"/>
<path d="M60.3967 28.4901H58.4057V30.4811H60.3967V28.4901Z" fill="black"/>
<path d="M62.3877 28.4901H60.3967V30.4811H62.3877V28.4901Z" fill="black"/>
<path d="M64.3787 28.4901H62.3877V30.4811H64.3787V28.4901Z" fill="black"/>
<path d="M68.3607 28.4901H66.3697V30.4811H68.3607V28.4901Z" fill="black"/>
<path d="M2.65798 30.4811H0.666992V32.4721H2.65798V30.4811Z" fill="black"/>
<path d="M10.6219 30.4811H8.63096V32.4721H10.6219V30.4811Z" fill="black"/>
<path d="M12.6129 30.4811L10.6219 30.4811V32.4721H12.6129V30.4811Z" fill="black"/>
<path d="M18.5859 30.4811L16.5949 30.4811V32.4721H18.5859V30.4811Z" fill="black"/>
<path d="M22.5679 30.4811H20.5769V32.4721H22.5679V30.4811Z" fill="black"/>
<path d="M26.5499 30.4811L24.5589 30.4811V32.4721H26.5499L26.5499 30.4811Z" fill="black"/>
<path d="M28.5409 30.4811H26.5499L26.5499 32.4721H28.5409V30.4811Z" fill="black"/>
<path d="M30.5319 30.4811H28.5409V32.4721H30.5319V30.4811Z" fill="black"/>
<path d="M40.4868 30.4811L38.4958 30.4811V32.4721H40.4868V30.4811Z" fill="black"/>
<path d="M44.4688 30.4811H42.4778V32.4721H44.4688V30.4811Z" fill="black"/>
<path d="M46.4598 30.4811L44.4688 30.4811V32.4721H46.4598V30.4811Z" fill="black"/>
<path d="M54.4237 30.4811H52.4328V32.4721H54.4237V30.4811Z" fill="black"/>
<path d="M58.4057 30.4811H56.4147V32.4721H58.4057V30.4811Z" fill="black"/>
<path d="M60.3967 30.4811H58.4057V32.4721H60.3967V30.4811Z" fill="black"/>
<path d="M62.3877 30.4811H60.3967V32.4721H62.3877V30.4811Z" fill="black"/>
<path d="M66.3697 30.4811H64.3787V32.4721H66.3697V30.4811Z" fill="black"/>
<path d="M72.3427 30.4811H70.3517V32.4721H72.3427V30.4811Z" fill="black"/>
<path d="M6.63997 32.4721H4.64897V34.4631H6.63997V32.4721Z" fill="black"/>
<path d="M8.63096 32.4721L6.63997 32.4721V34.4631H8.63096V32.4721Z" fill="black"/>
<path d="M10.6219 32.4721H8.63096V34.4631H10.6219V32.4721Z" fill="black"/>
<path d="M12.6129 32.4721H10.6219V34.4631H12.6129V32.4721Z" fill="black"/>
<path d="M14.6039 32.4721L12.6129 32.4721V34.4631H14.6039V32.4721Z" fill="black"/>
<path d="M16.5949 32.4721L14.6039 32.4721V34.4631H16.5949V32.4721Z" fill="black"/>
<path d="M20.5769 32.4721H18.5859V34.4631H20.5769V32.4721Z" fill="black"/>
<path d="M22.5679 32.4721H20.5769V34.4631H22.5679V32.4721Z" fill="black"/>
<path d="M24.5589 32.4721H22.5679V34.4631H24.5589L24.5589 32.4721Z" fill="black"/>
<path d="M28.5409 32.4721H26.5499L26.5499 34.4631H28.5409V32.4721Z" fill="black"/>
<path d="M30.5319 32.4721H28.5409V34.4631H30.5319V32.4721Z" fill="black"/>
<path d="M38.4958 32.4721L36.5048 32.4721V34.4631H38.4958V32.4721Z" fill="black"/>
<path d="M40.4868 32.4721H38.4958V34.4631H40.4868V32.4721Z" fill="black"/>
<path d="M42.4778 32.4721H40.4868V34.4631H42.4778V32.4721Z" fill="black"/>
<path d="M46.4598 32.4721H44.4688V34.4631H46.4598V32.4721Z" fill="black"/>
<path d="M48.4508 32.4721L46.4598 32.4721V34.4631H48.4508V32.4721Z" fill="black"/>
<path d="M56.4147 32.4721H54.4237V34.4631H56.4147V32.4721Z" fill="black"/>
<path d="M66.3697 32.4721H64.3787V34.4631H66.3697V32.4721Z" fill="black"/>
<path d="M74.3337 32.4721L72.3427 32.4721V34.4631H74.3337V32.4721Z" fill="black"/>
<path d="M2.65798 34.4631H0.666992V36.4541H2.65798V34.4631Z" fill="black"/>
<path d="M4.64897 34.4631H2.65798V36.4541H4.64897V34.4631Z" fill="black"/>
<path d="M8.63096 34.4631H6.63997V36.4541H8.63096V34.4631Z" fill="black"/>
<path d="M16.5949 34.4631H14.6039V36.4541H16.5949V34.4631Z" fill="black"/>
<path d="M20.5769 34.4631H18.5859V36.4541H20.5769V34.4631Z" fill="black"/>
<path d="M24.5589 34.4631H22.5679V36.4541H24.5589V34.4631Z" fill="black"/>
<path d="M34.5138 34.4631H32.5228V36.4541H34.5138V34.4631Z" fill="black"/>
<path d="M36.5048 34.4631H34.5138V36.4541H36.5048L36.5048 34.4631Z" fill="black"/>
<path d="M38.4958 34.4631H36.5048L36.5048 36.4541H38.4958V34.4631Z" fill="black"/>
<path d="M42.4778 34.4631H40.4868V36.4541H42.4778V34.4631Z" fill="black"/>
<path d="M44.4688 34.4631H42.4778V36.4541H44.4688V34.4631Z" fill="black"/>
<path d="M50.4418 34.4631H48.4508V36.4541H50.4418V34.4631Z" fill="black"/>
<path d="M60.3967 34.4631H58.4057V36.4541H60.3967V34.4631Z" fill="black"/>
<path d="M62.3877 34.4631H60.3967V36.4541H62.3877V34.4631Z" fill="black"/>
<path d="M70.3517 34.4631H68.3607V36.4541H70.3517V34.4631Z" fill="black"/>
<path d="M72.3427 34.4631H70.3517V36.4541H72.3427V34.4631Z" fill="black"/>
<path d="M4.64897 36.4541H2.65798V38.445H4.64897V36.4541Z" fill="black"/>
<path d="M8.63096 36.4541H6.63997V38.445H8.63096V36.4541Z" fill="black"/>
<path d="M10.6219 36.454L8.63096 36.4541V38.445H10.6219V36.454Z" fill="black"/>
<path d="M14.6039 36.4541L12.6129 36.454V38.445H14.6039V36.4541Z" fill="black"/>
<path d="M16.5949 36.4541H14.6039V38.445H16.5949V36.4541Z" fill="black"/>
<path d="M20.5769 36.4541H18.5859V38.445H20.5769V36.4541Z" fill="black"/>
<path d="M28.5409 36.454H26.5499V38.445H28.5409V36.454Z" fill="black"/>
<path d="M30.5319 36.454H28.5409V38.445H30.5319V36.454Z" fill="black"/>
<path d="M34.5138 36.4541H32.5228V38.445H34.5138V36.4541Z" fill="black"/>
<path d="M40.4868 36.4541H38.4958V38.445H40.4868V36.4541Z" fill="black"/>
<path d="M44.4688 36.4541H42.4778V38.445H44.4688V36.4541Z" fill="black"/>
<path d="M48.4508 36.4541L46.4598 36.454V38.445H48.4508V36.4541Z" fill="black"/>
<path d="M52.4328 36.454L50.4418 36.4541V38.445H52.4328V36.454Z" fill="black"/>
<path d="M62.3877 36.4541H60.3967V38.445H62.3877V36.4541Z" fill="black"/>
<path d="M66.3697 36.454H64.3787V38.445H66.3697V36.454Z" fill="black"/>
<path d="M72.3427 36.4541H70.3517V38.445H72.3427V36.4541Z" fill="black"/>
<path d="M2.65798 38.445H0.666992V40.436H2.65798V38.445Z" fill="black"/>
<path d="M4.64897 38.445H2.65798V40.436H4.64897V38.445Z" fill="black"/>
<path d="M6.63997 38.445H4.64897V40.436H6.63997V38.445Z" fill="black"/>
<path d="M10.6219 38.445H8.63096V40.436H10.6219V38.445Z" fill="black"/>
<path d="M16.5949 38.445H14.6039V40.436H16.5949V38.445Z" fill="black"/>
<path d="M18.5859 38.445H16.5949V40.436H18.5859V38.445Z" fill="black"/>
<path d="M22.5679 38.445H20.5769V40.436H22.5679V38.445Z" fill="black"/>
<path d="M24.5589 38.445H22.5679V40.436H24.5589V38.445Z" fill="black"/>
<path d="M30.5319 38.445H28.5409V40.436H30.5319V38.445Z" fill="black"/>
<path d="M38.4958 38.445H36.5048V40.436H38.4958V38.445Z" fill="black"/>
<path d="M40.4868 38.445H38.4958V40.436H40.4868V38.445Z" fill="black"/>
<path d="M42.4778 38.445H40.4868V40.436H42.4778V38.445Z" fill="black"/>
<path d="M44.4688 38.445H42.4778V40.436H44.4688V38.445Z" fill="black"/>
<path d="M50.4418 38.445H48.4508V40.436H50.4418V38.445Z" fill="black"/>
<path d="M52.4328 38.445H50.4418V40.436H52.4328V38.445Z" fill="black"/>
<path d="M56.4147 38.445H54.4237V40.436H56.4147V38.445Z" fill="black"/>
<path d="M58.4057 38.445H56.4147V40.436H58.4057V38.445Z" fill="black"/>
<path d="M60.3967 38.445H58.4057V40.436H60.3967V38.445Z" fill="black"/>
<path d="M62.3877 38.445H60.3967V40.436H62.3877V38.445Z" fill="black"/>
<path d="M74.3337 38.445H72.3427V40.436H74.3337V38.445Z" fill="black"/>
<path d="M2.65798 40.436H0.666992V42.427H2.65798V40.436Z" fill="black"/>
<path d="M14.6039 40.436H12.6129V42.427H14.6039V40.436Z" fill="black"/>
<path d="M16.5949 40.436H14.6039V42.427H16.5949V40.436Z" fill="black"/>
<path d="M22.5679 40.436H20.5769V42.427H22.5679V40.436Z" fill="black"/>
<path d="M24.5589 40.436H22.5679V42.427H24.5589V40.436Z" fill="black"/>
<path d="M32.5229 40.436H30.5319L30.5319 42.427H32.5229V40.436Z" fill="black"/>
<path d="M40.4868 40.436H38.4958V42.427H40.4868V40.436Z" fill="black"/>
<path d="M42.4778 40.436H40.4868V42.427H42.4778V40.436Z" fill="black"/>
<path d="M50.4418 40.436H48.4508V42.427H50.4418V40.436Z" fill="black"/>
<path d="M58.4057 40.436H56.4147V42.427H58.4057V40.436Z" fill="black"/>
<path d="M60.3967 40.436H58.4057V42.427H60.3967V40.436Z" fill="black"/>
<path d="M66.3697 40.436H64.3787V42.427H66.3697V40.436Z" fill="black"/>
<path d="M68.3607 40.436H66.3697V42.427H68.3607V40.436Z" fill="black"/>
<path d="M74.3337 40.436H72.3427V42.427H74.3337V40.436Z" fill="black"/>
<path d="M2.65798 42.427H0.666992V44.418H2.65798V42.427Z" fill="black"/>
<path d="M4.64897 42.427H2.65798V44.418H4.64897V42.427Z" fill="black"/>
<path d="M6.63997 42.427H4.64897V44.418H6.63997V42.427Z" fill="black"/>
<path d="M8.63096 42.427H6.63997V44.418H8.63096V42.427Z" fill="black"/>
<path d="M10.6219 42.427H8.63096V44.418H10.6219V42.427Z" fill="black"/>
<path d="M18.5859 42.427H16.5949V44.418H18.5859V42.427Z" fill="black"/>
<path d="M22.5679 42.427H20.5769V44.418H22.5679V42.427Z" fill="black"/>
<path d="M28.5409 42.427H26.5499V44.418H28.5409V42.427Z" fill="black"/>
<path d="M32.5229 42.427H30.5319V44.418H32.5229V42.427Z" fill="black"/>
<path d="M34.5138 42.427H32.5229V44.418H34.5138V42.427Z" fill="black"/>
<path d="M36.5048 42.427H34.5138V44.418H36.5048V42.427Z" fill="black"/>
<path d="M46.4598 42.427H44.4688V44.418H46.4598V42.427Z" fill="black"/>
<path d="M50.4418 42.427H48.4508V44.418H50.4418V42.427Z" fill="black"/>
<path d="M60.3967 42.427H58.4057V44.418H60.3967V42.427Z" fill="black"/>
<path d="M64.3787 42.427H62.3877V44.418H64.3787V42.427Z" fill="black"/>
<path d="M66.3697 42.427H64.3787V44.418H66.3697V42.427Z" fill="black"/>
<path d="M70.3517 42.427H68.3607V44.418H70.3517V42.427Z" fill="black"/>
<path d="M2.65798 44.418H0.666992V46.409H2.65798V44.418Z" fill="black"/>
<path d="M10.6219 44.418H8.63096V46.409H10.6219V44.418Z" fill="black"/>
<path d="M12.6129 44.418H10.6219V46.409H12.6129V44.418Z" fill="black"/>
<path d="M14.6039 44.418H12.6129V46.409H14.6039V44.418Z" fill="black"/>
<path d="M16.5949 44.418H14.6039V46.409H16.5949V44.418Z" fill="black"/>
<path d="M18.5859 44.418H16.5949V46.409H18.5859V44.418Z" fill="black"/>
<path d="M22.5679 44.418H20.5769V46.409H22.5679V44.418Z" fill="black"/>
<path d="M24.5589 44.418H22.5679V46.409H24.5589V44.418Z" fill="black"/>
<path d="M32.5229 44.418H30.5319V46.409H32.5229V44.418Z" fill="black"/>
<path d="M34.5138 44.418H32.5229V46.409H34.5138V44.418Z" fill="black"/>
<path d="M36.5048 44.418H34.5138V46.409H36.5048V44.418Z" fill="black"/>
<path d="M40.4868 44.418H38.4958V46.409H40.4868V44.418Z" fill="black"/>
<path d="M50.4418 44.418H48.4508V46.409H50.4418V44.418Z" fill="black"/>
<path d="M52.4328 44.418H50.4418V46.409H52.4328V44.418Z" fill="black"/>
<path d="M54.4237 44.418H52.4328V46.409H54.4237V44.418Z" fill="black"/>
<path d="M56.4147 44.418H54.4237V46.409H56.4147V44.418Z" fill="black"/>
<path d="M58.4057 44.418H56.4147V46.409H58.4057V44.418Z" fill="black"/>
<path d="M60.3967 44.418H58.4057V46.409H60.3967V44.418Z" fill="black"/>
<path d="M68.3607 44.418H66.3697V46.409H68.3607V44.418Z" fill="black"/>
<path d="M70.3517 44.418H68.3607V46.409H70.3517V44.418Z" fill="black"/>
<path d="M74.3337 44.418H72.3427V46.409H74.3337V44.418Z" fill="black"/>
<path d="M2.65798 46.409H0.666992V48.4H2.65798V46.409Z" fill="black"/>
<path d="M4.64897 46.409H2.65798V48.4H4.64897V46.409Z" fill="black"/>
<path d="M6.63997 46.409H4.64897V48.4H6.63997V46.409Z" fill="black"/>
<path d="M8.63096 46.409H6.63997V48.4H8.63096V46.409Z" fill="black"/>
<path d="M12.6129 46.409H10.6219V48.4H12.6129V46.409Z" fill="black"/>
<path d="M16.5949 46.409H14.6039V48.4H16.5949V46.409Z" fill="black"/>
<path d="M18.5859 46.409H16.5949V48.4H18.5859V46.409Z" fill="black"/>
<path d="M22.5679 46.409H20.5769V48.4H22.5679V46.409Z" fill="black"/>
<path d="M24.5589 46.409H22.5679V48.4H24.5589V46.409Z" fill="black"/>
<path d="M26.5499 46.409H24.5589V48.4H26.5499V46.409Z" fill="black"/>
<path d="M28.5409 46.409H26.5499V48.4H28.5409V46.409Z" fill="black"/>
<path d="M36.5048 46.409H34.5138V48.4H36.5048V46.409Z" fill="black"/>
<path d="M40.4868 46.409H38.4958V48.4H40.4868V46.409Z" fill="black"/>
<path d="M42.4778 46.409H40.4868V48.4H42.4778V46.409Z" fill="black"/>
<path d="M44.4688 46.409H42.4778V48.4H44.4688V46.409Z" fill="black"/>
<path d="M46.4598 46.409H44.4688V48.4H46.4598V46.409Z" fill="black"/>
<path d="M58.4057 46.409H56.4147V48.4H58.4057V46.409Z" fill="black"/>
<path d="M62.3877 46.409H60.3967V48.4H62.3877V46.409Z" fill="black"/>
<path d="M64.3787 46.409H62.3877V48.4H64.3787V46.409Z" fill="black"/>
<path d="M68.3607 46.409H66.3697V48.4H68.3607V46.409Z" fill="black"/>
<path d="M70.3517 46.409H68.3607V48.4H70.3517V46.409Z" fill="black"/>
<path d="M74.3337 46.409H72.3427V48.4H74.3337V46.409Z" fill="black"/>
<path d="M4.64897 48.4H2.65798V50.391H4.64897V48.4Z" fill="black"/>
<path d="M14.6039 48.4H12.6129V50.391H14.6039V48.4Z" fill="black"/>
<path d="M20.5769 48.4H18.5859V50.391H20.5769V48.4Z" fill="black"/>
<path d="M24.5589 48.4H22.5679V50.391H24.5589V48.4Z" fill="black"/>
<path d="M26.5499 48.4H24.5589V50.391H26.5499V48.4Z" fill="black"/>
<path d="M28.5409 48.4H26.5499V50.391H28.5409V48.4Z" fill="black"/>
<path d="M34.5138 48.4H32.5228V50.391H34.5138V48.4Z" fill="black"/>
<path d="M38.4958 48.4H36.5048L36.5048 50.391H38.4958V48.4Z" fill="black"/>
<path d="M42.4778 48.4H40.4868V50.391H42.4778V48.4Z" fill="black"/>
<path d="M50.4418 48.4H48.4508V50.391H50.4418V48.4Z" fill="black"/>
<path d="M52.4328 48.4H50.4418V50.391H52.4328V48.4Z" fill="black"/>
<path d="M58.4057 48.4H56.4147V50.391H58.4057V48.4Z" fill="black"/>
<path d="M64.3787 48.4H62.3877V50.391H64.3787V48.4Z" fill="black"/>
<path d="M70.3517 48.4H68.3607V50.391H70.3517V48.4Z" fill="black"/>
<path d="M72.3427 48.4H70.3517V50.391H72.3427V48.4Z" fill="black"/>
<path d="M74.3337 48.4H72.3427V50.391H74.3337V48.4Z" fill="black"/>
<path d="M6.63997 50.391H4.64897V52.382H6.63997V50.391Z" fill="black"/>
<path d="M8.63096 50.391H6.63997V52.382H8.63096V50.391Z" fill="black"/>
<path d="M12.6129 50.391H10.6219V52.382H12.6129V50.391Z" fill="black"/>
<path d="M16.5949 50.391H14.6039V52.382H16.5949V50.391Z" fill="black"/>
<path d="M22.5679 50.391H20.5769V52.382H22.5679V50.391Z" fill="black"/>
<path d="M30.5319 50.391H28.5409V52.382H30.5319V50.391Z" fill="black"/>
<path d="M34.5138 50.391H32.5228V52.382H34.5138V50.391Z" fill="black"/>
<path d="M36.5048 50.391H34.5138V52.382H36.5048L36.5048 50.391Z" fill="black"/>
<path d="M38.4958 50.391H36.5048L36.5048 52.382H38.4958V50.391Z" fill="black"/>
<path d="M40.4868 50.391H38.4958V52.382H40.4868V50.391Z" fill="black"/>
<path d="M44.4688 50.391H42.4778V52.382H44.4688V50.391Z" fill="black"/>
<path d="M52.4328 50.391H50.4418V52.382H52.4328V50.391Z" fill="black"/>
<path d="M54.4237 50.391H52.4328V52.382H54.4237V50.391Z" fill="black"/>
<path d="M58.4057 50.391H56.4147V52.382H58.4057V50.391Z" fill="black"/>
<path d="M60.3967 50.391H58.4057V52.382H60.3967V50.391Z" fill="black"/>
<path d="M62.3877 50.391H60.3967V52.382H62.3877V50.391Z" fill="black"/>
<path d="M64.3787 50.391H62.3877V52.382H64.3787V50.391Z" fill="black"/>
<path d="M68.3607 50.391H66.3697V52.382H68.3607V50.391Z" fill="black"/>
<path d="M70.3517 50.391H68.3607V52.382H70.3517V50.391Z" fill="black"/>
<path d="M2.65798 52.382H0.666992V54.373H2.65798V52.382Z" fill="black"/>
<path d="M6.63997 52.382H4.64897V54.373H6.63997V52.382Z" fill="black"/>
<path d="M10.6219 52.382H8.63096V54.373H10.6219V52.382Z" fill="black"/>
<path d="M12.6129 52.382H10.6219V54.373H12.6129V52.382Z" fill="black"/>
<path d="M14.6039 52.382H12.6129V54.373H14.6039V52.382Z" fill="black"/>
<path d="M16.5949 52.382H14.6039V54.373H16.5949V52.382Z" fill="black"/>
<path d="M18.5859 52.382H16.5949V54.373H18.5859V52.382Z" fill="black"/>
<path d="M20.5769 52.382H18.5859V54.373H20.5769V52.382Z" fill="black"/>
<path d="M24.5589 52.382H22.5679V54.373H24.5589V52.382Z" fill="black"/>
<path d="M28.5409 52.382H26.5499V54.373H28.5409V52.382Z" fill="black"/>
<path d="M32.5228 52.382H30.5319L30.5319 54.373H32.5229L32.5228 52.382Z" fill="black"/>
<path d="M40.4868 52.382H38.4958V54.373H40.4868V52.382Z" fill="black"/>
<path d="M42.4778 52.382H40.4868V54.373H42.4778V52.382Z" fill="black"/>
<path d="M44.4688 52.382H42.4778V54.373H44.4688V52.382Z" fill="black"/>
<path d="M50.4418 52.382H48.4508V54.373H50.4418V52.382Z" fill="black"/>
<path d="M54.4237 52.382H52.4328V54.373H54.4237V52.382Z" fill="black"/>
<path d="M58.4057 52.382H56.4147V54.373H58.4057V52.382Z" fill="black"/>
<path d="M66.3697 52.382H64.3787V54.373H66.3697V52.382Z" fill="black"/>
<path d="M8.63096 54.373H6.63997V56.364H8.63096V54.373Z" fill="black"/>
<path d="M16.5949 54.373H14.6039V56.364H16.5949V54.373Z" fill="black"/>
<path d="M20.5769 54.373H18.5859V56.364H20.5769V54.373Z" fill="black"/>
<path d="M22.5679 54.373H20.5769V56.364H22.5679V54.373Z" fill="black"/>
<path d="M26.5499 54.373H24.5589L24.5589 56.364H26.5499L26.5499 54.373Z" fill="black"/>
<path d="M28.5409 54.373H26.5499L26.5499 56.364H28.5409V54.373Z" fill="black"/>
<path d="M30.5319 54.373H28.5409V56.364H30.5319L30.5319 54.373Z" fill="black"/>
<path d="M32.5229 54.373H30.5319L30.5319 56.364H32.5229V54.373Z" fill="black"/>
<path d="M34.5138 54.373H32.5229V56.364H34.5138V54.373Z" fill="black"/>
<path d="M36.5048 54.373H34.5138V56.364H36.5048V54.373Z" fill="black"/>
<path d="M38.4958 54.373H36.5048V56.364H38.4958V54.373Z" fill="black"/>
<path d="M40.4868 54.373H38.4958V56.364H40.4868V54.373Z" fill="black"/>
<path d="M44.4688 54.373H42.4778V56.364H44.4688V54.373Z" fill="black"/>
<path d="M46.4598 54.373H44.4688V56.364H46.4598V54.373Z" fill="black"/>
<path d="M48.4508 54.373H46.4598V56.364H48.4508V54.373Z" fill="black"/>
<path d="M52.4328 54.373H50.4418V56.364H52.4328V54.373Z" fill="black"/>
<path d="M54.4237 54.373H52.4328V56.364H54.4237V54.373Z" fill="black"/>
<path d="M66.3697 54.373H64.3787V56.364H66.3697V54.373Z" fill="black"/>
<path d="M68.3607 54.373H66.3697V56.364H68.3607V54.373Z" fill="black"/>
<path d="M70.3517 54.373H68.3607V56.364H70.3517V54.373Z" fill="black"/>
<path d="M2.65798 56.364H0.666992V58.3549H2.65798V56.364Z" fill="black"/>
<path d="M6.63997 56.364H4.64897V58.3549H6.63997V56.364Z" fill="black"/>
<path d="M8.63096 56.364H6.63997V58.3549H8.63096V56.364Z" fill="black"/>
<path d="M10.6219 56.364H8.63096V58.3549H10.6219V56.364Z" fill="black"/>
<path d="M14.6039 56.364H12.6129V58.3549H14.6039V56.364Z" fill="black"/>
<path d="M16.5949 56.364H14.6039V58.3549H16.5949V56.364Z" fill="black"/>
<path d="M22.5679 56.364H20.5769V58.3549H22.5679V56.364Z" fill="black"/>
<path d="M26.5499 56.364H24.5589V58.3549H26.5499V56.364Z" fill="black"/>
<path d="M28.5409 56.364H26.5499V58.3549H28.5409V56.364Z" fill="black"/>
<path d="M34.5138 56.364H32.5229L32.5228 58.3549H34.5138V56.364Z" fill="black"/>
<path d="M38.4958 56.364H36.5048L36.5048 58.3549H38.4958V56.364Z" fill="black"/>
<path d="M40.4868 56.364H38.4958V58.3549H40.4868V56.364Z" fill="black"/>
<path d="M42.4778 56.364H40.4868V58.3549H42.4778V56.364Z" fill="black"/>
<path d="M50.4418 56.364H48.4508V58.3549H50.4418V56.364Z" fill="black"/>
<path d="M58.4057 56.364H56.4147V58.3549H58.4057V56.364Z" fill="black"/>
<path d="M60.3967 56.364H58.4057V58.3549H60.3967V56.364Z" fill="black"/>
<path d="M62.3877 56.364H60.3967V58.3549H62.3877V56.364Z" fill="black"/>
<path d="M64.3787 56.364H62.3877V58.3549H64.3787V56.364Z" fill="black"/>
<path d="M66.3697 56.364H64.3787V58.3549H66.3697V56.364Z" fill="black"/>
<path d="M68.3607 56.364H66.3697V58.3549H68.3607V56.364Z" fill="black"/>
<path d="M70.3517 56.364H68.3607V58.3549H70.3517V56.364Z" fill="black"/>
<path d="M74.3337 56.364H72.3427V58.3549H74.3337V56.364Z" fill="black"/>
<path d="M18.5859 58.3549H16.5949V60.3459H18.5859V58.3549Z" fill="black"/>
<path d="M20.5769 58.3549H18.5859V60.3459H20.5769V58.3549Z" fill="black"/>
<path d="M22.5679 58.3549H20.5769V60.3459H22.5679V58.3549Z" fill="black"/>
<path d="M24.5589 58.3549H22.5679V60.3459H24.5589L24.5589 58.3549Z" fill="black"/>
<path d="M42.4778 58.3549H40.4868V60.3459H42.4778V58.3549Z" fill="black"/>
<path d="M48.4508 58.3549H46.4598V60.3459H48.4508V58.3549Z" fill="black"/>
<path d="M56.4147 58.3549H54.4237V60.3459H56.4147V58.3549Z" fill="black"/>
<path d="M58.4057 58.3549H56.4147V60.3459H58.4057V58.3549Z" fill="black"/>
<path d="M66.3697 58.3549H64.3787V60.3459H66.3697V58.3549Z" fill="black"/>
<path d="M68.3607 58.3549H66.3697V60.3459H68.3607V58.3549Z" fill="black"/>
<path d="M2.65798 60.3459H0.666992V62.3369H2.65798V60.3459Z" fill="black"/>
<path d="M4.64897 60.3459H2.65798V62.3369H4.64897V60.3459Z" fill="black"/>
<path d="M6.63997 60.3459H4.64897V62.3369H6.63997V60.3459Z" fill="black"/>
<path d="M8.63096 60.3459H6.63997V62.3369H8.63096V60.3459Z" fill="black"/>
<path d="M10.6219 60.3459H8.63096V62.3369H10.6219V60.3459Z" fill="black"/>
<path d="M12.6129 60.3459H10.6219V62.3369H12.6129V60.3459Z" fill="black"/>
<path d="M14.6039 60.3459H12.6129V62.3369H14.6039V60.3459Z" fill="black"/>
<path d="M22.5679 60.3459H20.5769V62.3369H22.5679V60.3459Z" fill="black"/>
<path d="M24.5589 60.3459H22.5679V62.3369H24.5589V60.3459Z" fill="black"/>
<path d="M26.5499 60.3459H24.5589V62.3369H26.5499V60.3459Z" fill="black"/>
<path d="M30.5319 60.3459H28.5409V62.3369H30.5319V60.3459Z" fill="black"/>
<path d="M32.5229 60.3459H30.5319V62.3369H32.5229V60.3459Z" fill="black"/>
<path d="M34.5138 60.3459H32.5229V62.3369H34.5138V60.3459Z" fill="black"/>
<path d="M40.4868 60.3459H38.4958V62.3369H40.4868V60.3459Z" fill="black"/>
<path d="M42.4778 60.3459H40.4868V62.3369H42.4778V60.3459Z" fill="black"/>
<path d="M46.4598 60.3459H44.4688V62.3369H46.4598V60.3459Z" fill="black"/>
<path d="M48.4508 60.3459H46.4598V62.3369H48.4508V60.3459Z" fill="black"/>
<path d="M50.4418 60.3459H48.4508V62.3369H50.4418V60.3459Z" fill="black"/>
<path d="M54.4237 60.3459H52.4328V62.3369H54.4237V60.3459Z" fill="black"/>
<path d="M56.4147 60.3459H54.4237V62.3369H56.4147V60.3459Z" fill="black"/>
<path d="M58.4057 60.3459H56.4147V62.3369H58.4057V60.3459Z" fill="black"/>
<path d="M62.3877 60.3459H60.3967V62.3369H62.3877V60.3459Z" fill="black"/>
<path d="M66.3697 60.3459H64.3787V62.3369H66.3697V60.3459Z" fill="black"/>
<path d="M68.3607 60.3459H66.3697V62.3369H68.3607V60.3459Z" fill="black"/>
<path d="M2.65798 62.3369H0.666992V64.3279H2.65798V62.3369Z" fill="black"/>
<path d="M14.6039 62.3369H12.6129V64.3279H14.6039V62.3369Z" fill="black"/>
<path d="M20.5769 62.3369H18.5859V64.3279H20.5769V62.3369Z" fill="black"/>
<path d="M22.5679 62.3369H20.5769V64.3279H22.5679V62.3369Z" fill="black"/>
<path d="M24.5589 62.3369H22.5679V64.3279H24.5589V62.3369Z" fill="black"/>
<path d="M32.5229 62.3369H30.5319L30.5319 64.3279H32.5229V62.3369Z" fill="black"/>
<path d="M36.5048 62.3369H34.5138V64.3279H36.5048V62.3369Z" fill="black"/>
<path d="M38.4958 62.3369H36.5048V64.3279H38.4958V62.3369Z" fill="black"/>
<path d="M42.4778 62.3369H40.4868V64.3279H42.4778V62.3369Z" fill="black"/>
<path d="M46.4598 62.3369H44.4688V64.3279H46.4598V62.3369Z" fill="black"/>
<path d="M48.4508 62.3369H46.4598V64.3279H48.4508V62.3369Z" fill="black"/>
<path d="M50.4418 62.3369H48.4508V64.3279H50.4418V62.3369Z" fill="black"/>
<path d="M52.4328 62.3369H50.4418V64.3279H52.4328V62.3369Z" fill="black"/>
<path d="M56.4147 62.3369H54.4237V64.3279H56.4147V62.3369Z" fill="black"/>
<path d="M58.4057 62.3369H56.4147V64.3279H58.4057V62.3369Z" fill="black"/>
<path d="M66.3697 62.3369H64.3787V64.3279H66.3697V62.3369Z" fill="black"/>
<path d="M74.3337 62.3369H72.3427V64.3279H74.3337V62.3369Z" fill="black"/>
<path d="M2.65798 64.3279H0.666992V66.3189H2.65798V64.3279Z" fill="black"/>
<path d="M6.63997 64.3279H4.64897V66.3189H6.63997V64.3279Z" fill="black"/>
<path d="M8.63096 64.3279H6.63997V66.3189H8.63096V64.3279Z" fill="black"/>
<path d="M10.6219 64.3279H8.63096V66.3189H10.6219V64.3279Z" fill="black"/>
<path d="M14.6039 64.3279H12.6129V66.3189H14.6039V64.3279Z" fill="black"/>
<path d="M18.5859 64.3279H16.5949V66.3189H18.5859V64.3279Z" fill="black"/>
<path d="M20.5769 64.3279H18.5859V66.3189H20.5769V64.3279Z" fill="black"/>
<path d="M24.5589 64.3279H22.5679V66.3189H24.5589V64.3279Z" fill="black"/>
<path d="M28.5409 64.3279H26.5499V66.3189H28.5409V64.3279Z" fill="black"/>
<path d="M30.5319 64.3279H28.5409V66.3189H30.5319L30.5319 64.3279Z" fill="black"/>
<path d="M42.4778 64.3279H40.4868V66.3189H42.4778V64.3279Z" fill="black"/>
<path d="M44.4688 64.3279H42.4778V66.3189H44.4688V64.3279Z" fill="black"/>
<path d="M48.4508 64.3279H46.4598V66.3189H48.4508V64.3279Z" fill="black"/>
<path d="M52.4328 64.3279H50.4418V66.3189H52.4328V64.3279Z" fill="black"/>
<path d="M58.4057 64.3279H56.4147V66.3189H58.4057V64.3279Z" fill="black"/>
<path d="M60.3967 64.3279H58.4057V66.3189H60.3967V64.3279Z" fill="black"/>
<path d="M62.3877 64.3279H60.3967V66.3189H62.3877V64.3279Z" fill="black"/>
<path d="M64.3787 64.3279H62.3877V66.3189H64.3787V64.3279Z" fill="black"/>
<path d="M66.3697 64.3279H64.3787V66.3189H66.3697V64.3279Z" fill="black"/>
<path d="M70.3517 64.3279H68.3607V66.3189H70.3517V64.3279Z" fill="black"/>
<path d="M72.3427 64.3279H70.3517V66.3189H72.3427V64.3279Z" fill="black"/>
<path d="M2.65798 66.3189H0.666992V68.3099H2.65798V66.3189Z" fill="black"/>
<path d="M6.63997 66.3189H4.64897V68.3099H6.63997V66.3189Z" fill="black"/>
<path d="M8.63096 66.3189H6.63997V68.3099H8.63096V66.3189Z" fill="black"/>
<path d="M10.6219 66.3189H8.63096V68.3099H10.6219V66.3189Z" fill="black"/>
<path d="M14.6039 66.3189H12.6129V68.3099H14.6039V66.3189Z" fill="black"/>
<path d="M20.5769 66.3189H18.5859V68.3099H20.5769V66.3189Z" fill="black"/>
<path d="M22.5679 66.3189H20.5769V68.3099H22.5679V66.3189Z" fill="black"/>
<path d="M28.5409 66.3189H26.5499V68.3099H28.5409V66.3189Z" fill="black"/>
<path d="M30.5319 66.3189H28.5409V68.3099H30.5319V66.3189Z" fill="black"/>
<path d="M32.5229 66.3189H30.5319V68.3099H32.5229V66.3189Z" fill="black"/>
<path d="M36.5048 66.3189H34.5138V68.3099H36.5048V66.3189Z" fill="black"/>
<path d="M40.4868 66.3189H38.4958V68.3099H40.4868V66.3189Z" fill="black"/>
<path d="M42.4778 66.3189H40.4868V68.3099H42.4778V66.3189Z" fill="black"/>
<path d="M46.4598 66.3189H44.4688V68.3099H46.4598V66.3189Z" fill="black"/>
<path d="M48.4508 66.3189H46.4598V68.3099H48.4508V66.3189Z" fill="black"/>
<path d="M56.4147 66.3189H54.4237V68.3099H56.4147V66.3189Z" fill="black"/>
<path d="M58.4057 66.3189H56.4147V68.3099H58.4057V66.3189Z" fill="black"/>
<path d="M68.3607 66.3189H66.3697V68.3099H68.3607V66.3189Z" fill="black"/>
<path d="M72.3427 66.3189H70.3517V68.3099H72.3427V66.3189Z" fill="black"/>
<path d="M74.3337 66.3189H72.3427V68.3099H74.3337V66.3189Z" fill="black"/>
<path d="M2.65798 68.3099H0.666992V70.3009H2.65798V68.3099Z" fill="black"/>
<path d="M6.63997 68.3099H4.64897V70.3009H6.63997V68.3099Z" fill="black"/>
<path d="M8.63096 68.3099H6.63997V70.3009H8.63096V68.3099Z" fill="black"/>
<path d="M10.6219 68.3099H8.63096V70.3009H10.6219V68.3099Z" fill="black"/>
<path d="M14.6039 68.3099H12.6129V70.3009H14.6039V68.3099Z" fill="black"/>
<path d="M18.5859 68.3099H16.5949V70.3009H18.5859V68.3099Z" fill="black"/>
<path d="M20.5769 68.3099H18.5859V70.3009H20.5769V68.3099Z" fill="black"/>
<path d="M24.5589 68.3099H22.5679V70.3009H24.5589V68.3099Z" fill="black"/>
<path d="M30.5319 68.3099H28.5409V70.3009H30.5319V68.3099Z" fill="black"/>
<path d="M32.5229 68.3099H30.5319V70.3009H32.5229V68.3099Z" fill="black"/>
<path d="M34.5138 68.3099H32.5229V70.3009H34.5138V68.3099Z" fill="black"/>
<path d="M38.4958 68.3099H36.5048L36.5048 70.3009H38.4958V68.3099Z" fill="black"/>
<path d="M44.4688 68.3099H42.4778V70.3009H44.4688V68.3099Z" fill="black"/>
<path d="M48.4508 68.3099H46.4598V70.3009H48.4508V68.3099Z" fill="black"/>
<path d="M56.4147 68.3099H54.4237V70.3009H56.4147V68.3099Z" fill="black"/>
<path d="M58.4057 68.3099H56.4147V70.3009H58.4057V68.3099Z" fill="black"/>
<path d="M60.3967 68.3099H58.4057V70.3009H60.3967V68.3099Z" fill="black"/>
<path d="M70.3517 68.3099H68.3607V70.3009H70.3517V68.3099Z" fill="black"/>
<path d="M72.3427 68.3099H70.3517V70.3009H72.3427V68.3099Z" fill="black"/>
<path d="M2.65798 70.3009H0.666992V72.2919H2.65798V70.3009Z" fill="black"/>
<path d="M14.6039 70.3009H12.6129V72.2919H14.6039V70.3009Z" fill="black"/>
<path d="M18.5859 70.3009H16.5949V72.2919H18.5859V70.3009Z" fill="black"/>
<path d="M20.5769 70.3009H18.5859V72.2919H20.5769V70.3009Z" fill="black"/>
<path d="M24.5589 70.3009H22.5679V72.2919H24.5589V70.3009Z" fill="black"/>
<path d="M30.5319 70.3009H28.5409V72.2919H30.5319V70.3009Z" fill="black"/>
<path d="M32.5229 70.3009H30.5319V72.2919H32.5229V70.3009Z" fill="black"/>
<path d="M34.5138 70.3009H32.5229V72.2919H34.5138V70.3009Z" fill="black"/>
<path d="M54.4237 70.3009H52.4328V72.2919H54.4237V70.3009Z" fill="black"/>
<path d="M58.4057 70.3009H56.4147V72.2919H58.4057V70.3009Z" fill="black"/>
<path d="M62.3877 70.3009H60.3967V72.2919H62.3877V70.3009Z" fill="black"/>
<path d="M64.3787 70.3009H62.3877V72.2919H64.3787V70.3009Z" fill="black"/>
<path d="M72.3427 70.3009H70.3517V72.2919H72.3427V70.3009Z" fill="black"/>
<path d="M2.65798 72.2919H0.666992V74.2829H2.65798V72.2919Z" fill="black"/>
<path d="M4.64897 72.2919H2.65798V74.2829H4.64897V72.2919Z" fill="black"/>
<path d="M6.63997 72.2919H4.64897V74.2829H6.63997V72.2919Z" fill="black"/>
<path d="M8.63096 72.2919H6.63997V74.2829H8.63096V72.2919Z" fill="black"/>
<path d="M10.6219 72.2919H8.63096V74.2829H10.6219V72.2919Z" fill="black"/>
<path d="M12.6129 72.2919H10.6219V74.2829H12.6129V72.2919Z" fill="black"/>
<path d="M14.6039 72.2919H12.6129V74.2829H14.6039V72.2919Z" fill="black"/>
<path d="M18.5859 72.2919H16.5949V74.2829H18.5859V72.2919Z" fill="black"/>
<path d="M22.5679 72.2919H20.5769V74.2829H22.5679V72.2919Z" fill="black"/>
<path d="M24.5589 72.2919H22.5679V74.2829H24.5589V72.2919Z" fill="black"/>
<path d="M26.5499 72.2919H24.5589V74.2829H26.5499V72.2919Z" fill="black"/>
<path d="M30.5319 72.2919H28.5409V74.2829H30.5319V72.2919Z" fill="black"/>
<path d="M32.5229 72.2919H30.5319V74.2829H32.5229V72.2919Z" fill="black"/>
<path d="M38.4958 72.2919H36.5048V74.2829H38.4958V72.2919Z" fill="black"/>
<path d="M40.4868 72.2919H38.4958V74.2829H40.4868V72.2919Z" fill="black"/>
<path d="M46.4598 72.2919H44.4688V74.2829H46.4598V72.2919Z" fill="black"/>
<path d="M54.4237 72.2919H52.4328V74.2829H54.4237V72.2919Z" fill="black"/>
<path d="M56.4147 72.2919H54.4237V74.2829H56.4147V72.2919Z" fill="black"/>
<path d="M58.4057 72.2919H56.4147V74.2829H58.4057V72.2919Z" fill="black"/>
<path d="M62.3877 72.2919H60.3967V74.2829H62.3877V72.2919Z" fill="black"/>
<path d="M66.3697 72.2919H64.3787V74.2829H66.3697V72.2919Z" fill="black"/>
<path d="M68.3607 72.2919H66.3697V74.2829H68.3607V72.2919Z" fill="black"/>
<path d="M70.3517 72.2919H68.3607V74.2829H70.3517V72.2919Z" fill="black"/>
<path d="M72.3427 72.2919H70.3517V74.2829H72.3427V72.2919Z" fill="black"/>
<path d="M74.3337 72.2919H72.3427V74.2829H74.3337V72.2919Z" fill="black"/>
</svg>
